<?xml version="1.0" encoding="UTF-8" standalone="no"?>
<!-- Created with Inkscape (http://www.inkscape.org/) -->

<svg
   xmlns:dc="http://purl.org/dc/elements/1.1/"
   xmlns:cc="http://creativecommons.org/ns#"
   xmlns:rdf="http://www.w3.org/1999/02/22-rdf-syntax-ns#"
   xmlns:svg="http://www.w3.org/2000/svg"
   xmlns="http://www.w3.org/2000/svg"
   xmlns:sodipodi="http://sodipodi.sourceforge.net/DTD/sodipodi-0.dtd"
   xmlns:inkscape="http://www.inkscape.org/namespaces/inkscape"
   id="svg2"
   version="1.1"
   inkscape:version="0.91 r13725"
   xml:space="preserve"
   width="466.77789"
   height="194.36229"
   viewBox="0 0 466.77789 194.36229"
   sodipodi:docname="etalab_mi_logos.svg"><metadata
     id="metadata8"><rdf:RDF><cc:Work
         rdf:about=""><dc:format>image/svg+xml</dc:format><dc:type
           rdf:resource="http://purl.org/dc/dcmitype/StillImage" /><dc:title></dc:title></cc:Work></rdf:RDF></metadata><defs
     id="defs6"><clipPath
       clipPathUnits="userSpaceOnUse"
       id="clipPath22"><path
         d="m 253.918,636.886 87.44,0 0,112.311 -87.44,0 0,-112.311 z"
         id="path24-3"
         inkscape:connector-curvature="0" /></clipPath><clipPath
       clipPathUnits="userSpaceOnUse"
       id="clipPath236"><path
         d="m 253.918,636.886 87.439,0 0,112.311 -87.439,0 0,-112.311 z"
         id="path238"
         inkscape:connector-curvature="0" /></clipPath><clipPath
       clipPathUnits="userSpaceOnUse"
       id="clipPath250"><path
         d="m 253.918,636.886 87.44,0 0,112.311 -87.44,0 0,-112.311 z"
         id="path252"
         inkscape:connector-curvature="0" /></clipPath></defs><sodipodi:namedview
     pagecolor="#ffffff"
     bordercolor="#666666"
     borderopacity="1"
     objecttolerance="10"
     gridtolerance="10"
     guidetolerance="10"
     inkscape:pageopacity="0"
     inkscape:pageshadow="2"
     inkscape:window-width="1301"
     inkscape:window-height="744"
     id="namedview4"
     showgrid="false"
     inkscape:zoom="0.94414467"
     inkscape:cx="461.76621"
     inkscape:cy="167.86841"
     inkscape:window-x="65"
     inkscape:window-y="339"
     inkscape:window-maximized="1"
     inkscape:current-layer="g10"
     fit-margin-top="0"
     fit-margin-left="0"
     fit-margin-right="0"
     fit-margin-bottom="0" /><g
     id="g10"
     inkscape:groupmode="layer"
     inkscape:label="ink_ext_XXXXXX"
     transform="matrix(1.25,0,0,-1.25,-4,131.08067)"><g
       id="g12"
       transform="matrix(0.1,0,0,0.1,3.2,0)"><path
         d="m 141.527,270.371 c 66.653,0 86.504,3.602 93.715,9.024 2.672,1.804 5.403,5.402 5.403,17.117 0,25.226 -17.125,56.789 -69.379,56.789 -53.184,0 -99.1527,-48.688 -100.0394,-78.418 0,-1.817 0,-4.512 6.3164,-4.512 l 63.984,0 z M 85.6445,243.348 c -23.4414,0 -24.332,-1.805 -24.332,-24.344 0,-91.035 53.1525,-168.5157 149.5665,-168.5157 29.766,0 55.019,9.0156 82.914,44.1484 9.023,2.7071 15.344,-2.6953 16.234,-10.7969 C 280.32,22.5273 215.391,0 168.563,0 109.949,0 64.0156,25.2227 37.8672,59.5039 10.8633,94.6367 0,136.992 0,176.641 0,287.477 73.0313,380.32 181.176,380.32 c 77.48,0 127.961,-53.164 127.961,-107.254 0,-12.605 -1.809,-19.804 -3.617,-23.41 -2.704,-5.418 -15.286,-6.308 -53.153,-6.308 l -166.7225,0"
         style="fill:#127bca;fill-opacity:1;fill-rule:nonzero;stroke:none"
         id="path14"
         inkscape:connector-curvature="0" /><path
         d="m 487.551,329.859 c -15.281,0 -16.172,-2.703 -16.172,-21.636 l 0,-168.535 c 0,-52.2583 6.32,-100.0396 65.793,-100.0396 8.988,0 17.062,1.8164 24.332,4.5118 8.101,2.7343 19.824,12.6171 22.496,12.6171 7.211,0 10.863,-9.8828 9.023,-15.3125 C 576.785,22.5273 544.379,0 498.383,0 420.867,0 404.668,43.2695 404.668,97.3438 l 0,206.3672 c 0,24.336 -0.859,26.148 -18.875,26.148 l -25.285,0 c -5.403,3.618 -6.289,13.528 -2.699,18.93 26.113,8.102 48.699,19.809 57.66,27.938 11.719,10.789 28.844,35.125 37.867,53.164 4.539,1.812 15.34,1.812 18.934,-4.504 l 0,-40.559 c 0,-16.23 0.918,-17.117 16.203,-17.117 l 100.039,0 c 10.801,-8.137 8.988,-32.469 0.886,-37.852 l -101.847,0"
         style="fill:#127bca;fill-opacity:1;fill-rule:nonzero;stroke:none"
         id="path16"
         inkscape:connector-curvature="0" /><path
         d="m 759.77,40.5742 c 17.984,0 46,13.4961 54.96,22.5235 10.801,10.8281 11.723,23.4453 11.723,42.3513 l 1.813,53.145 c 0,9.941 -3.621,11.719 -9.024,11.719 -5.398,0 -20.742,-3.586 -36.976,-9.012 -53.149,-17.992 -79.297,-31.496 -79.297,-66.6643 0,-15.3398 10.804,-54.0625 56.801,-54.0625 z M 815.621,199.16 c 13.535,4.512 14.422,12.656 15.348,26.145 l 0.886,41.461 c 0.887,33.371 -9.914,78.418 -65.824,78.418 -25.191,0 -55.851,-12.625 -57.656,-40.571 -0.895,-14.437 -1.781,-25.218 -8.965,-30.64 -13.558,-10.821 -37.867,-17.11 -51.398,-17.11 -8.102,0 -12.645,4.485 -12.645,12.602 0,46.859 101.852,110.855 167.641,110.855 64.875,0 96.422,-37.871 93.722,-105.437 l -5.402,-156.797 c -1.812,-41.4844 6.317,-78.4376 41.453,-78.4376 9.028,0 17.157,2.7344 22.555,5.4414 4.453,2.6915 9.023,6.2891 11.727,6.2891 3.558,0 6.32,-5.4023 6.32,-11.7305 C 973.383,35.1758 941.809,0 897.645,0 875.98,0 854.352,8.10547 839.066,27.9883 c -3.621,5.3711 -9.023,12.5859 -14.421,12.5859 -6.325,0 -17.125,-8.1015 -35.168,-18.0469 C 769.684,11.7266 749.859,0 724.605,0 698.461,0 676.824,7.24609 661.543,20.7539 644.391,36.0625 633.59,58.6133 633.59,83.8398 c 0,35.1642 17.125,55.8482 74.785,76.5982 l 107.246,38.722"
         style="fill:#127bca;fill-opacity:1;fill-rule:nonzero;stroke:none"
         id="path18"
         inkscape:connector-curvature="0" /><path
         d="m 1112.15,113.574 c 0,-64.9021 1.78,-73.9256 34.25,-78.3982 l 21.6,-2.7031 c 6.29,-4.4844 4.51,-19.8282 -1.75,-22.52348 -29.77,1.77738 -55.91,2.69528 -87.49,2.69528 -32.4,0 -59.44,-0.9179 -86.502,-2.69528 -6.297,2.69528 -8.102,18.03908 -1.785,22.52348 l 20.747,2.7031 c 33.33,4.4726 34.24,13.4961 34.24,78.3982 l 0,407.34 c 0,53.149 -0.91,58.563 -27.92,74.793 l -9.05,5.422 c -4.52,2.699 -4.52,15.312 0,17.996 22.55,7.211 64.87,20.742 97.34,37.867 3.62,0 7.21,-1.797 9.02,-5.402 -0.92,-27.035 -2.7,-72.113 -2.7,-111.762 l 0,-426.254"
         style="fill:#127bca;fill-opacity:1;fill-rule:nonzero;stroke:none"
         id="path20"
         inkscape:connector-curvature="0" /><path
         d="m 1346.47,40.5742 c 17.98,0 45.94,13.4961 54.97,22.5235 10.8,10.8281 11.71,23.4453 11.71,42.3513 l 1.81,53.145 c 0,9.941 -3.62,11.719 -9.08,11.719 -5.37,0 -20.68,-3.586 -36.92,-9.012 -53.15,-17.992 -79.29,-31.496 -79.29,-66.6643 0,-15.3398 10.83,-54.0625 56.8,-54.0625 z m 55.85,158.5858 c 13.53,4.512 14.46,12.656 15.35,26.145 l 0.88,41.461 c 0.92,33.371 -9.91,78.418 -65.76,78.418 -25.25,0 -55.91,-12.625 -57.69,-40.571 -0.92,-14.437 -1.81,-25.218 -9.02,-30.64 -13.53,-10.821 -37.84,-17.11 -51.37,-17.11 -8.1,0 -12.61,4.485 -12.61,12.602 0,46.859 101.82,110.855 167.61,110.855 64.87,0 96.41,-37.871 93.75,-105.437 l -5.43,-156.797 c -1.82,-41.4844 6.32,-78.4376 41.48,-78.4376 8.97,0 17.06,2.7344 22.49,5.4414 4.48,2.6915 9,6.2891 11.73,6.2891 3.58,0 6.35,-5.4023 6.35,-11.7305 C 1560.08,35.1758 1528.48,0 1484.35,0 c -21.64,0 -43.31,8.10547 -58.59,27.9883 -3.58,5.3711 -8.98,12.5859 -14.42,12.5859 -6.29,0 -17.12,-8.1015 -35.17,-18.0469 C 1356.35,11.7266 1336.56,0 1311.31,0 c -26.15,0 -47.78,7.24609 -63.07,20.7539 -17.12,15.3086 -27.96,37.8594 -27.96,63.0859 0,35.1642 17.16,55.8482 74.82,76.5982 l 107.22,38.722"
         style="fill:#127bca;fill-opacity:1;fill-rule:nonzero;stroke:none"
         id="path22"
         inkscape:connector-curvature="0" /><path
         d="m 1687.13,135.215 c 0,-31.582 7.21,-59.5002 22.52,-78.4377 15.34,-18.9062 39.65,-29.7343 68.49,-29.7343 84.69,0 118.05,72.1054 118.05,149.598 0,92.824 -47.71,164.937 -136.98,164.937 -27,0 -48.7,-6.336 -61.25,-14.422 -9.02,-6.32 -10.83,-16.234 -10.83,-51.386 l 0,-140.555 z m -66.69,385.699 c 0,53.149 -0.89,58.563 -27.95,74.793 l -9.02,5.422 c -4.49,2.699 -4.49,15.312 0,17.996 20.74,8.117 63.97,19.84 98.25,37.867 3.59,0 7.22,-1.797 8.99,-5.402 -1.77,-31.531 -3.58,-72.113 -3.58,-111.762 l 0,-170.324 c 0,-15.328 3.58,-18.902 8.98,-18.902 23.48,13.5 59.51,29.718 103.67,29.718 102.73,0 172.11,-77.484 172.11,-176.648 C 1971.89,83.8398 1885.39,0 1764.61,0 c -33.3,0 -58.56,5.41016 -76.59,11.7266 -18.94,5.4023 -30.6,11.7187 -37.87,11.7187 -7.21,0 -14.43,-7.2344 -18.88,-13.49608 -0.92,-0.92578 -1.81,-0.92578 -3.61,-0.92578 -3.66,0 -7.22,1.81636 -9.03,5.40236 0.92,12.6172 1.81,29.7344 1.81,76.5976 l 0,429.8906"
         style="fill:#127bca;fill-opacity:1;fill-rule:nonzero;stroke:none"
         id="path24"
         inkscape:connector-curvature="0" /><path
         d="m 1782.1,523.98 c 0,-15.3 10.03,-25.964 23.94,-25.964 9.17,0 16.47,4.406 22.24,10.515 l 0,33.942 c -5.3,4.57 -12.24,8.129 -21.57,8.129 -14.76,0 -24.61,-11.539 -24.61,-26.622 z m 57.84,-39.05 c 0,-8.973 -2.36,-15.926 -6.59,-21.02 -6.11,-7.453 -16.27,-10.527 -27.5,-10.527 -11.36,0 -20.16,3.547 -24.58,7.812 -2.58,2.543 -3.74,5.414 -3.74,8.301 0,4.922 3.58,8.805 8.47,8.805 4.23,0 7.12,-3.203 7.12,-7.27 0,-1.707 -0.46,-3.39 -1.48,-4.742 2.18,-1.383 6.9,-2.887 14.21,-2.887 7.12,0 13.91,1.856 18.13,7.106 2.71,3.41 4.3,7.793 4.3,13.93 l 0,14.074 c -5.95,-6.11 -13.07,-10.664 -24.09,-10.664 -18.84,0 -34.34,14.925 -34.34,35.945 0,19.539 14.31,37.148 35.81,37.148 9.67,0 17.32,-3.894 23.11,-9.308 l 0,7.976 22.9,0 0,-10.375 -11.73,0 0,-64.304"
         style="fill:#ed1c24;fill-opacity:1;fill-rule:nonzero;stroke:none"
         id="path26"
         inkscape:connector-curvature="0" /><path
         d="m 1924.64,523.457 c 0,15.957 -10.13,27.313 -24.92,27.313 -14.76,0 -24.94,-11.356 -24.94,-27.313 0,-16.121 10.18,-27.309 24.94,-27.309 14.79,0 24.92,11.188 24.92,27.309 z m -62.08,0 c 0,20.359 14.73,37.484 37.16,37.484 22.4,0 37.16,-16.937 37.16,-37.484 0,-20.543 -14.76,-37.5 -37.16,-37.5 -22.55,0 -37.16,16.816 -37.16,37.5"
         style="fill:#ed1c24;fill-opacity:1;fill-rule:nonzero;stroke:none"
         id="path28"
         inkscape:connector-curvature="0" /><path
         d="m 1960.51,495.625 c -2.21,3.883 -3.4,9.008 -3.4,14.773 l 0,38.836 -11.54,0 0,10.375 23.26,0 0,-46.996 c 0,-4.082 0.64,-7.336 1.99,-9.699 2.25,-4.238 5.96,-6.094 11.85,-6.094 9.02,0 17,5.758 23.78,12.735 l 0,39.679 -11.88,0 0,10.375 23.6,0 0,-62.109 11.54,0 0,-10.176 -22.92,0 0,13.395 c -6.75,-7.981 -16.63,-14.762 -27,-14.762 -9.49,0 -15.72,3.563 -19.28,9.668"
         style="fill:#ed1c24;fill-opacity:1;fill-rule:nonzero;stroke:none"
         id="path30"
         inkscape:connector-curvature="0" /><path
         d="m 2043.98,549.234 -9.48,0 0,10.375 33.57,0 0,-10.004 -11.54,0 21.39,-47.707 21.2,47.707 -11.9,0 0,10.004 33.44,0 0,-10.375 -9.48,0 -30.38,-64.304 -6.44,0 -30.38,64.304"
         style="fill:#ed1c24;fill-opacity:1;fill-rule:nonzero;stroke:none"
         id="path32"
         inkscape:connector-curvature="0" /><path
         d="m 2117.84,496.621 c 0,5.957 4.43,10.715 10.31,10.715 5.95,0 10.38,-4.758 10.38,-10.715 0,-5.902 -4.43,-10.664 -10.38,-10.664 -5.88,0 -10.31,4.762 -10.31,10.664"
         style="fill:#ed1c24;fill-opacity:1;fill-rule:nonzero;stroke:none"
         id="path34"
         inkscape:connector-curvature="0" /><path
         d="m 2184.52,602.34 c -2.23,-0.508 -4.26,-1.504 -5.58,-3.395 -2.61,-3.023 -3.96,-7.945 -3.96,-15.097 l 0,-24.239 18.72,0 0,-10.375 -18.72,0 0,-51.734 14.12,0 0,-10.176 -37.5,0 0,10.176 11.72,0 0,51.734 -12.92,0 0,10.375 12.92,0 0,21.524 c 0,11.722 2.06,19.531 7.61,25.117 4.24,4.098 9.33,6.629 16.48,6.629 7.82,0 13.2,-3.742 13.2,-9.68 0,-4.758 -3.2,-7.98 -7.31,-7.98 -4.73,0 -7.42,3.066 -8.78,7.121"
         style="fill:#ed1c24;fill-opacity:1;fill-rule:nonzero;stroke:none"
         id="path36"
         inkscape:connector-curvature="0" /><path
         d="m 2258.85,551.461 c 0,-4.57 -3.6,-8.652 -8.14,-8.652 -4.41,0 -7.48,2.882 -8.65,6.086 -5.46,-1.532 -12.06,-7.961 -15.61,-15.247 l 0,-36.148 13.56,0 0,-10.176 -36.8,0 0,10.176 11.54,0 0,51.734 -11.54,0 0,10.375 22.71,0 0,-16.464 c 5.61,10.019 14.24,17.796 22.1,17.796 7.12,0 10.83,-4.57 10.83,-9.48"
         style="fill:#ed1c24;fill-opacity:1;fill-rule:nonzero;stroke:none"
         id="path38"
         inkscape:connector-curvature="0" /></g><g
       id="g4518"
       transform="matrix(1.4857381,0,0,1.3844577,-130.54479,-932.36702)"><path
         inkscape:connector-curvature="0"
         id="path16-6"
         style="fill:#ffffff;fill-opacity:1;fill-rule:nonzero;stroke:none"
         d="m 254.117,691.184 87.043,0 0,57.814 -87.043,0 0,-57.814 z" /><g
         id="g18"><g
           clip-path="url(#clipPath22)"
           id="g20"><g
             transform="translate(268.1505,705.8273)"
             id="g26"><path
               inkscape:connector-curvature="0"
               id="path28-7"
               style="fill:#2b2b2a;fill-opacity:1;fill-rule:nonzero;stroke:none"
               d="m 0,0 c -0.123,0 -0.235,-0.018 -0.37,-0.049 0,-0.364 -0.007,-1.026 -0.007,-1.539 0.069,-0.012 0.192,-0.018 0.272,-0.018 0.507,0 0.846,0.315 0.846,0.796 C 0.741,-0.34 0.426,0 0,0 m 1.588,-3.867 c -0.229,0 -0.359,0.031 -0.488,0.116 -0.204,0.137 -0.421,0.507 -0.544,0.717 -0.21,0.364 -0.444,0.754 -0.667,1.081 -0.037,-0.006 -0.068,-0.006 -0.093,-0.006 -0.062,0 -0.111,0.006 -0.173,0.006 l 0,-0.327 c 0,-0.166 0.007,-0.334 0.007,-0.501 0.005,-0.334 0.012,-0.475 0.062,-0.604 0.061,-0.162 0.173,-0.241 0.376,-0.26 l 0,-0.173 -0.142,0.005 c -0.161,0.006 -0.383,0 -0.674,0 -0.284,0 -0.506,0.006 -0.667,0 l -0.148,-0.005 0,0.173 c 0.154,0.012 0.228,0.043 0.303,0.123 0.067,0.081 0.111,0.191 0.123,0.334 0.019,0.185 0.024,0.297 0.024,0.908 l 0,1.037 c 0,0.755 -0.024,0.94 -0.067,1.113 -0.043,0.166 -0.173,0.234 -0.383,0.259 l 0,0.174 c 0.123,-0.012 0.247,-0.006 0.37,-0.006 0.321,0 0.421,0 0.804,0.017 0.333,0.013 0.525,0.019 0.673,0.019 0.42,0 0.673,-0.062 0.883,-0.21 0.235,-0.166 0.39,-0.488 0.39,-0.809 0,-0.507 -0.334,-0.92 -0.902,-1.13 0.235,-0.297 0.42,-0.594 0.636,-0.933 0.198,-0.316 0.396,-0.588 0.55,-0.742 0.086,-0.092 0.142,-0.123 0.259,-0.154 l 0,-0.173 C 1.94,-3.855 1.779,-3.867 1.588,-3.867" /></g><g
             transform="translate(272.9083,702.0858)"
             id="g30"><path
               inkscape:connector-curvature="0"
               id="path32-5"
               style="fill:#2b2b2a;fill-opacity:1;fill-rule:nonzero;stroke:none"
               d="m 0,0 c -0.046,-0.076 -0.097,-0.092 -0.377,-0.092 -0.175,0 -0.343,0.01 -0.517,0.016 -0.244,0.004 -0.489,0.015 -0.734,0.015 -0.245,0 -0.49,-0.006 -0.735,-0.015 l 0,0.143 c 0.229,0.02 0.332,0.152 0.352,0.376 0.015,0.154 0.015,0.317 0.015,0.582 l 0,1.444 c 0,0.271 -0.015,0.394 -0.056,0.501 -0.046,0.132 -0.138,0.195 -0.311,0.215 l 0,0.143 2.388,0 C 0.025,3.18 0.021,3.026 0.021,2.879 0.021,2.756 0.015,2.637 0.025,2.516 l -0.183,0 C -0.195,2.91 -0.363,3.015 -0.97,3.015 -1.083,3.015 -1.23,3.011 -1.353,3.006 -1.363,2.807 -1.368,2.74 -1.368,2.444 l 0,-0.592 c 0.076,-0.005 0.138,-0.005 0.23,-0.005 0.53,0 0.694,0.077 0.724,0.352 l 0.184,0 C -0.24,2.118 -0.24,1.95 -0.24,1.693 c 0,-0.259 0.005,-0.412 0.01,-0.494 l -0.184,0 c -0.015,0.291 -0.153,0.362 -0.678,0.362 -0.092,0 -0.184,-0.004 -0.276,-0.004 0,-0.322 0.005,-0.644 0.005,-0.966 0,-0.213 0.036,-0.284 0.158,-0.316 0.077,-0.02 0.195,-0.025 0.352,-0.025 0.551,0 0.746,0.122 0.863,0.542 L 0.209,0.75 C 0.137,0.393 0.056,0.097 0,0 M -1.138,3.659 -1.379,3.802 -0.873,4.547 -0.286,4.44 -1.138,3.659 Z" /></g><g
             transform="translate(275.0359,703.5258)"
             id="g34"><path
               inkscape:connector-curvature="0"
               id="path36-3"
               style="fill:#2b2b2a;fill-opacity:1;fill-rule:nonzero;stroke:none"
               d="m 0,0 c -0.051,0 -0.076,0 -0.143,0.005 l -0.112,0.259 c 0.48,0.031 0.745,0.266 0.745,0.653 0,0.41 -0.28,0.7 -0.669,0.7 -0.061,0 -0.112,-0.006 -0.193,-0.02 0,-0.317 -0.01,-0.633 -0.01,-0.95 l 0,-0.893 c 0,-0.668 0.004,-0.78 0.056,-0.914 0.045,-0.132 0.138,-0.199 0.311,-0.213 l 0,-0.143 -0.123,0.004 c -0.132,0.005 -0.316,0.005 -0.561,0.005 -0.24,0 -0.429,0 -0.556,-0.005 l -0.122,-0.004 0,0.143 c 0.23,0.02 0.331,0.152 0.351,0.376 0.016,0.154 0.016,0.246 0.016,0.751 l 0,1.275 c 0,0.271 -0.016,0.394 -0.056,0.501 -0.046,0.132 -0.138,0.195 -0.311,0.215 l 0,0.143 c 0.061,-0.006 0.015,-0.006 0.234,-0.006 0.087,0 0.21,0 0.373,0.006 0.26,0.009 0.52,0.025 0.78,0.025 0.725,0 1.159,-0.358 1.159,-0.949 C 1.169,0.407 0.674,0 0,0" /></g><g
             transform="translate(279.674,705.1572)"
             id="g38"><path
               inkscape:connector-curvature="0"
               id="path40"
               style="fill:#2b2b2a;fill-opacity:1;fill-rule:nonzero;stroke:none"
               d="m 0,0 c -0.056,-0.076 -0.081,-0.178 -0.092,-0.383 -0.009,-0.219 -0.014,-0.387 -0.014,-0.703 0,-0.118 0.005,-0.469 0.005,-0.822 0,-0.357 -0.057,-0.573 -0.205,-0.786 -0.235,-0.342 -0.622,-0.516 -1.133,-0.516 -0.321,0 -0.566,0.062 -0.796,0.215 -0.357,0.23 -0.495,0.53 -0.495,1.071 0,0.552 0.01,0.792 0.01,0.97 0,0.26 0.016,0.531 -0.03,0.786 -0.031,0.183 -0.128,0.261 -0.342,0.281 l 0,0.144 0.117,-0.007 c 0.132,-0.004 0.321,-0.004 0.566,-0.004 0.246,0 0.435,0 0.567,0.004 l 0.117,0.007 0,-0.144 c -0.158,-0.02 -0.234,-0.062 -0.286,-0.147 -0.045,-0.078 -0.066,-0.179 -0.071,-0.405 -0.01,-0.32 -0.015,-0.637 -0.015,-0.959 0,-0.877 0.02,-1.047 0.179,-1.23 0.123,-0.143 0.331,-0.24 0.577,-0.24 0.341,0 0.673,0.174 0.775,0.517 0.066,0.219 0.076,0.376 0.076,0.953 l 0,0.505 c 0,0.582 -0.015,0.761 -0.071,0.848 -0.056,0.092 -0.132,0.143 -0.265,0.158 l 0,0.144 c 0.204,-0.011 0.275,-0.011 0.531,-0.011 0.259,0 0.331,0 0.535,0.011 l 0,-0.144 C 0.128,0.098 0.057,0.067 0,0" /></g><g
             transform="translate(281.7153,703.7232)"
             id="g42"><path
               inkscape:connector-curvature="0"
               id="path44"
               style="fill:#2b2b2a;fill-opacity:1;fill-rule:nonzero;stroke:none"
               d="m 0,0 c -0.087,0 -0.179,-0.005 -0.312,-0.015 -0.004,-0.137 -0.004,-0.164 -0.004,-0.398 l 0,-0.301 c 0,-0.286 0.01,-0.438 0.046,-0.541 0.04,-0.127 0.163,-0.188 0.378,-0.188 0.434,0 0.678,0.239 0.678,0.668 C 0.786,-0.3 0.48,0 0,0 m -0.015,1.425 c -0.092,0 -0.184,-0.011 -0.275,-0.011 -0.006,-0.331 -0.016,-0.902 -0.022,-1.117 0.057,-0.006 0.128,-0.011 0.225,-0.011 0.5,0 0.786,0.21 0.786,0.577 0,0.352 -0.266,0.562 -0.714,0.562 M 1.097,-1.474 C 0.858,-1.658 0.587,-1.72 0.066,-1.72 c -0.274,0 -0.555,0.022 -0.832,0.022 -0.112,0 -0.321,0 -0.464,-0.011 l -0.061,-0.005 0,0.144 c 0.241,0.019 0.331,0.141 0.352,0.376 0.015,0.154 0.021,0.246 0.021,0.751 l 0,0.964 c 0,0.474 -0.006,0.678 -0.057,0.812 -0.051,0.132 -0.142,0.194 -0.316,0.214 l 0,0.144 C -1.056,1.68 -0.918,1.68 -0.592,1.68 c 0.296,0 0.741,0.015 1.036,0.015 0.47,0 0.898,-0.224 0.898,-0.756 0,-0.392 -0.245,-0.657 -0.729,-0.78 0.541,-0.108 0.826,-0.418 0.826,-0.924 0,-0.306 -0.112,-0.537 -0.342,-0.709" /></g><g
             transform="translate(286.0368,702.0811)"
             id="g46"><path
               inkscape:connector-curvature="0"
               id="path48"
               style="fill:#2b2b2a;fill-opacity:1;fill-rule:nonzero;stroke:none"
               d="m 0,0 c -0.046,-0.072 -0.107,-0.087 -0.361,-0.087 -0.129,0 -0.262,0.005 -0.388,0.009 -0.318,0.011 -0.604,0.022 -0.95,0.022 -0.26,0 -0.434,-0.006 -0.597,-0.016 l 0,0.144 c 0.127,0.009 0.194,0.034 0.25,0.1 0.092,0.108 0.118,0.24 0.118,0.613 0,0.256 0.005,0.459 0.005,0.725 l 0,0.546 c 0,0.689 -0.005,0.781 -0.057,0.919 -0.046,0.132 -0.143,0.195 -0.316,0.214 l 0,0.144 0.127,-0.007 c 0.138,-0.004 0.327,-0.004 0.582,-0.004 0.251,0 0.445,0 0.577,0.004 l 0.127,0.007 0,-0.144 c -0.259,0 -0.372,-0.138 -0.403,-0.382 -0.01,-0.087 -0.015,-0.17 -0.015,-0.751 l 0,-0.852 c 0,-0.71 0.005,-0.797 0.072,-0.868 0.056,-0.056 0.162,-0.081 0.382,-0.081 0.28,0 0.434,0.029 0.562,0.101 0.142,0.076 0.249,0.23 0.301,0.445 L 0.21,0.75 C 0.153,0.453 0.056,0.086 0,0" /></g><g
             transform="translate(287.813,702.014)"
             id="g50"><path
               inkscape:connector-curvature="0"
               id="path52"
               style="fill:#2b2b2a;fill-opacity:1;fill-rule:nonzero;stroke:none"
               d="m 0,0 c -0.128,0.005 -0.317,0.005 -0.557,0.005 -0.245,0 -0.429,0 -0.56,-0.005 l -0.124,-0.005 0,0.144 c 0.239,0.02 0.332,0.141 0.352,0.376 0.016,0.154 0.02,0.246 0.02,0.751 l 0,0.857 c 0,0.134 -0.004,0.271 -0.004,0.418 0,0.271 -0.01,0.394 -0.051,0.501 -0.045,0.132 -0.144,0.195 -0.317,0.214 l 0,0.144 0.124,-0.007 c 0.131,-0.004 0.315,-0.004 0.56,-0.004 0.24,0 0.429,0 0.557,0.004 l 0.123,0.007 0,-0.144 C -0.097,3.241 -0.209,3.103 -0.23,2.874 -0.245,2.726 -0.245,2.583 -0.245,2.123 l 0,-0.857 c 0,-0.669 0.005,-0.781 0.055,-0.914 0.047,-0.132 0.139,-0.199 0.313,-0.213 l 0,-0.144 L 0,0 Z" /></g><g
             transform="translate(290.1745,705.1276)"
             id="g54"><path
               inkscape:connector-curvature="0"
               id="path56"
               style="fill:#2b2b2a;fill-opacity:1;fill-rule:nonzero;stroke:none"
               d="m 0,0 c -0.622,0 -1.068,-0.521 -1.068,-1.25 0,-0.888 0.527,-1.588 1.196,-1.588 0.628,0 1.071,0.532 1.071,1.27 C 1.199,-0.689 0.674,0 0,0 m 2.409,-4.037 c -0.398,0 -0.823,0.123 -1.225,0.347 -0.23,0.127 -0.552,0.347 -0.786,0.541 -0.173,-0.027 -0.24,-0.031 -0.403,-0.031 -1.031,0 -1.716,0.673 -1.716,1.69 0,1.085 0.741,1.837 1.824,1.837 1.05,0 1.749,-0.673 1.749,-1.684 0,-0.72 -0.367,-1.358 -0.948,-1.653 0.183,-0.094 0.366,-0.195 0.545,-0.302 0.521,-0.317 0.879,-0.45 1.215,-0.45 0.21,0 0.383,0.047 0.587,0.148 L 3.317,-3.771 C 3.068,-3.945 2.755,-4.037 2.409,-4.037" /></g><g
             transform="translate(295.5632,705.1572)"
             id="g58"><path
               inkscape:connector-curvature="0"
               id="path60"
               style="fill:#2b2b2a;fill-opacity:1;fill-rule:nonzero;stroke:none"
               d="m 0,0 c -0.056,-0.076 -0.081,-0.178 -0.092,-0.383 -0.01,-0.219 -0.016,-0.387 -0.016,-0.703 0,-0.118 0.006,-0.469 0.006,-0.822 0,-0.357 -0.056,-0.573 -0.205,-0.786 -0.233,-0.342 -0.621,-0.516 -1.132,-0.516 -0.321,0 -0.567,0.062 -0.796,0.215 -0.358,0.23 -0.495,0.53 -0.495,1.071 0,0.552 0.011,0.792 0.011,0.97 0,0.26 0.014,0.531 -0.032,0.786 -0.029,0.183 -0.127,0.261 -0.341,0.281 l 0,0.144 0.117,-0.007 c 0.132,-0.004 0.322,-0.004 0.566,-0.004 0.245,0 0.434,0 0.567,0.004 l 0.117,0.007 0,-0.144 c -0.158,-0.02 -0.235,-0.062 -0.286,-0.147 -0.046,-0.078 -0.066,-0.179 -0.071,-0.405 -0.01,-0.32 -0.016,-0.637 -0.016,-0.959 0,-0.877 0.021,-1.047 0.18,-1.23 0.122,-0.143 0.331,-0.24 0.576,-0.24 0.342,0 0.674,0.174 0.776,0.517 0.066,0.219 0.077,0.376 0.077,0.953 l 0,0.505 c 0,0.582 -0.016,0.761 -0.072,0.848 -0.056,0.092 -0.133,0.143 -0.267,0.158 l 0,0.144 c 0.206,-0.011 0.277,-0.011 0.532,-0.011 0.261,0 0.332,0 0.536,0.011 l 0,-0.144 C 0.128,0.098 0.056,0.067 0,0" /></g><g
             transform="translate(298.6757,702.0858)"
             id="g62"><path
               inkscape:connector-curvature="0"
               id="path64"
               style="fill:#2b2b2a;fill-opacity:1;fill-rule:nonzero;stroke:none"
               d="m 0,0 c -0.046,-0.076 -0.096,-0.092 -0.378,-0.092 -0.174,0 -0.341,0.01 -0.515,0.016 -0.245,0.004 -0.489,0.015 -0.735,0.015 -0.245,0 -0.49,-0.006 -0.734,-0.015 l 0,0.143 c 0.229,0.02 0.331,0.152 0.351,0.376 0.016,0.154 0.016,0.317 0.016,0.582 l 0,1.444 c 0,0.271 -0.016,0.394 -0.057,0.501 -0.045,0.132 -0.136,0.195 -0.31,0.215 l 0,0.143 2.387,0 C 0.025,3.18 0.021,3.026 0.021,2.879 0.021,2.756 0.016,2.637 0.025,2.516 l -0.183,0 C -0.194,2.91 -0.362,3.015 -0.969,3.015 -1.081,3.015 -1.23,3.011 -1.352,3.006 -1.362,2.807 -1.367,2.74 -1.367,2.444 l 0,-0.592 c 0.075,-0.005 0.137,-0.005 0.229,-0.005 0.532,0 0.693,0.077 0.725,0.352 l 0.183,0 C -0.24,2.118 -0.24,1.95 -0.24,1.693 c 0,-0.259 0.005,-0.412 0.01,-0.494 l -0.183,0 c -0.016,0.291 -0.154,0.362 -0.679,0.362 -0.091,0 -0.183,-0.004 -0.275,-0.004 0,-0.322 0.005,-0.644 0.005,-0.966 0,-0.213 0.036,-0.284 0.158,-0.316 0.077,-0.02 0.194,-0.025 0.352,-0.025 0.55,0 0.745,0.122 0.863,0.542 L 0.21,0.75 C 0.139,0.393 0.056,0.097 0,0" /></g><g
             transform="translate(303.3972,705.1355)"
             id="g66"><path
               inkscape:connector-curvature="0"
               id="path68"
               style="fill:#2b2b2a;fill-opacity:1;fill-rule:nonzero;stroke:none"
               d="m 0,0 c -0.006,0.444 -0.266,0.617 -0.964,0.617 -0.142,0 -0.277,-0.006 -0.434,-0.019 -0.011,-0.426 -0.011,-0.722 -0.011,-1.396 0.148,-0.006 0.223,-0.012 0.328,-0.012 0.574,0 0.747,0.099 0.778,0.432 l 0.222,0 c 0,-0.173 -0.012,-0.352 -0.012,-0.524 0,-0.229 0.012,-0.464 0.012,-0.692 l -0.222,0 c -0.043,0.37 -0.185,0.444 -0.833,0.444 -0.112,0 -0.154,0 -0.273,-0.006 l 0,-0.692 c 0,-0.135 0,-0.284 0.007,-0.444 0.012,-0.341 0.037,-0.638 0.438,-0.661 l 0,-0.173 -0.147,0.005 c -0.154,0.006 -0.385,0.006 -0.674,0.006 -0.297,0 -0.52,0 -0.679,-0.006 l -0.15,-0.005 0,0.173 c 0.279,0.023 0.401,0.185 0.428,0.457 0.018,0.185 0.018,0.297 0.018,0.908 l 0,1.544 c 0,0.328 -0.018,0.476 -0.068,0.605 -0.056,0.162 -0.166,0.235 -0.378,0.26 l 0,0.174 2.843,0 C 0.216,0.877 0.216,0.679 0.216,0.42 0.216,0.172 0.216,0.135 0.229,0 L 0,0 Z" /></g><g
             transform="translate(305.5031,705.1633)"
             id="g70"><path
               inkscape:connector-curvature="0"
               id="path72"
               style="fill:#2b2b2a;fill-opacity:1;fill-rule:nonzero;stroke:none"
               d="m 0,0 c -0.104,0 -0.195,-0.015 -0.307,-0.04 0,-0.302 -0.006,-0.848 -0.006,-1.272 0.056,-0.01 0.159,-0.016 0.225,-0.016 0.419,0 0.699,0.261 0.699,0.659 C 0.611,-0.281 0.352,0 0,0 m 1.31,-3.196 c -0.189,0 -0.296,0.027 -0.402,0.098 -0.169,0.112 -0.348,0.419 -0.45,0.593 -0.174,0.3 -0.368,0.622 -0.551,0.892 -0.032,-0.006 -0.056,-0.006 -0.077,-0.006 -0.051,0 -0.092,0.006 -0.143,0.006 l 0,-0.27 c 0,-0.139 0.006,-0.276 0.006,-0.414 0.006,-0.275 0.01,-0.393 0.05,-0.501 0.052,-0.132 0.144,-0.199 0.311,-0.212 l 0,-0.144 -0.118,0.005 c -0.131,0.004 -0.315,0 -0.555,0 -0.235,0 -0.418,0.004 -0.551,0 l -0.122,-0.005 0,0.144 c 0.127,0.009 0.188,0.034 0.25,0.1 0.056,0.067 0.09,0.159 0.101,0.276 0.016,0.153 0.021,0.245 0.021,0.751 l 0,0.857 c 0,0.622 -0.021,0.776 -0.057,0.919 -0.035,0.138 -0.143,0.194 -0.315,0.214 l 0,0.144 c 0.102,-0.011 0.205,-0.007 0.306,-0.007 0.266,0 0.347,0 0.662,0.016 0.277,0.011 0.435,0.015 0.557,0.015 0.347,0 0.557,-0.051 0.729,-0.172 0.195,-0.139 0.323,-0.405 0.323,-0.669 0,-0.42 -0.275,-0.762 -0.745,-0.935 0.192,-0.245 0.346,-0.489 0.525,-0.77 0.163,-0.261 0.327,-0.486 0.454,-0.612 0.072,-0.078 0.117,-0.103 0.215,-0.127 l 0,-0.144 C 1.602,-3.185 1.468,-3.196 1.31,-3.196" /></g><g
             transform="translate(308.8416,704.5149)"
             id="g74"><path
               inkscape:connector-curvature="0"
               id="path76"
               style="fill:#2b2b2a;fill-opacity:1;fill-rule:nonzero;stroke:none"
               d="m 0,0 c -0.132,-0.347 -0.315,-0.796 -0.391,-1.047 l 0.755,0 L 0,0 Z m 1.655,-2.501 c -0.127,0.005 -0.313,0.005 -0.546,0.005 -0.241,0 -0.423,0 -0.552,-0.005 l -0.116,-0.004 0,0.143 c 0.161,0.009 0.259,0.096 0.259,0.239 0,0.051 -0.014,0.122 -0.067,0.276 -0.061,0.188 -0.1,0.315 -0.163,0.489 l -0.98,0 -0.102,-0.297 c -0.077,-0.228 -0.117,-0.396 -0.117,-0.483 0,-0.148 0.067,-0.215 0.23,-0.224 l 0,-0.143 c -0.194,0.004 -0.264,0.009 -0.51,0.009 -0.241,0 -0.311,-0.005 -0.505,-0.009 l 0,0.143 c 0.078,0.009 0.103,0.02 0.158,0.07 0.097,0.087 0.195,0.266 0.347,0.654 l 0.484,1.235 c 0.134,0.331 0.332,0.868 0.469,1.302 l 0.347,0 C 0.338,0.74 0.445,0.49 0.517,0.306 l 0.718,-1.843 c 0.123,-0.31 0.21,-0.494 0.277,-0.612 0.071,-0.122 0.143,-0.184 0.266,-0.213 l 0,-0.143 -0.123,0.004 z" /></g><g
             transform="translate(314.1276,705.1166)"
             id="g78"><path
               inkscape:connector-curvature="0"
               id="path80"
               style="fill:#2b2b2a;fill-opacity:1;fill-rule:nonzero;stroke:none"
               d="M 0,0 C -0.054,-0.092 -0.065,-0.179 -0.076,-0.443 -0.09,-0.904 -0.095,-1.617 -0.095,-1.959 l 0,-0.781 c 0,-0.117 0.014,-0.296 0.014,-0.367 l -0.347,0 c -0.331,0.434 -1.02,1.275 -1.02,1.275 -0.082,0.103 -0.72,0.888 -1.041,1.282 0,-0.109 -0.005,-0.042 -0.005,-0.374 l 0,-0.331 c 0,-0.383 0.005,-0.76 0.02,-1.143 0.011,-0.214 0.03,-0.322 0.082,-0.418 0.052,-0.103 0.128,-0.143 0.275,-0.148 l 0,-0.143 c -0.178,0.009 -0.362,0.009 -0.541,0.009 -0.183,0 -0.362,0 -0.546,-0.009 l 0,0.143 c 0.338,0.009 0.347,0.291 0.357,0.555 0.006,0.215 0.01,0.394 0.01,0.72 l 0,1.076 c 0,0.425 -0.02,0.527 -0.096,0.639 -0.051,0.081 -0.118,0.113 -0.271,0.128 l 0,0.143 c 0.169,-0.011 0.229,-0.011 0.444,-0.011 0.21,0 0.271,0 0.438,0.011 0.063,-0.113 0.159,-0.214 0.512,-0.644 0.5,-0.606 0.949,-1.123 1.372,-1.653 l 0,1.112 c 0,0.512 -0.01,0.638 -0.036,0.771 -0.034,0.164 -0.133,0.245 -0.321,0.271 l 0,0.143 c 0.209,-0.011 0.282,-0.011 0.54,-0.011 0.261,0 0.333,0 0.543,0.011 l 0,-0.143 C 0.15,0.149 0.072,0.123 0,0" /></g><g
             transform="translate(317.6907,702.131)"
             id="g82"><path
               inkscape:connector-curvature="0"
               id="path84"
               style="fill:#2b2b2a;fill-opacity:1;fill-rule:nonzero;stroke:none"
               d="m 0,0 c -0.331,-0.132 -0.624,-0.184 -1.027,-0.184 l -0.046,-0.203 c 0.028,0.004 0.076,0 0.098,0 0.194,0 0.322,-0.139 0.322,-0.307 0,-0.275 -0.22,-0.469 -0.568,-0.469 -0.101,0 -0.193,0.02 -0.306,0.067 l 0.073,0.198 c 0.065,-0.026 0.126,-0.042 0.184,-0.042 0.142,0 0.239,0.072 0.239,0.201 0,0.101 -0.051,0.163 -0.128,0.163 -0.04,0 -0.077,-0.017 -0.111,-0.042 l -0.112,0.032 0.102,0.413 c -0.449,0.041 -0.777,0.188 -1.053,0.475 -0.315,0.321 -0.485,0.76 -0.485,1.275 0,1.102 0.711,1.766 1.878,1.766 0.353,0 0.694,-0.051 0.99,-0.147 C 0.041,3.078 0.041,2.961 0.041,2.849 0.041,2.762 0.045,2.578 0.05,2.46 l -0.2,0 c -0.08,0.362 -0.371,0.557 -0.835,0.557 -0.72,0 -1.158,-0.479 -1.158,-1.275 0,-0.919 0.515,-1.588 1.224,-1.588 0.429,0 0.72,0.215 0.836,0.622 L 0.112,0.735 C 0.067,0.561 0.02,0.271 0,0" /></g><g
             transform="translate(319.5784,704.5149)"
             id="g86"><path
               inkscape:connector-curvature="0"
               id="path88"
               style="fill:#2b2b2a;fill-opacity:1;fill-rule:nonzero;stroke:none"
               d="m 0,0 c -0.133,-0.347 -0.316,-0.796 -0.392,-1.047 l 0.754,0 L 0,0 Z m 1.653,-2.501 c -0.127,0.005 -0.311,0.005 -0.547,0.005 -0.24,0 -0.423,0 -0.551,-0.005 l -0.117,-0.004 0,0.143 c 0.164,0.009 0.261,0.096 0.261,0.239 0,0.051 -0.016,0.122 -0.067,0.276 -0.061,0.188 -0.102,0.315 -0.162,0.489 l -0.98,0 -0.102,-0.297 c -0.077,-0.228 -0.119,-0.396 -0.119,-0.483 0,-0.148 0.067,-0.215 0.231,-0.224 l 0,-0.143 c -0.195,0.004 -0.265,0.009 -0.511,0.009 -0.239,0 -0.311,-0.005 -0.505,-0.009 l 0,0.143 c 0.076,0.009 0.101,0.02 0.159,0.07 0.096,0.087 0.192,0.266 0.346,0.654 l 0.486,1.235 c 0.133,0.331 0.33,0.868 0.469,1.302 l 0.347,0 C 0.336,0.74 0.443,0.49 0.516,0.306 l 0.719,-1.843 c 0.123,-0.31 0.209,-0.494 0.275,-0.612 0.072,-0.122 0.143,-0.184 0.264,-0.213 l 0,-0.143 -0.121,0.004 z" /></g><g
             transform="translate(322.899,702.014)"
             id="g90"><path
               inkscape:connector-curvature="0"
               id="path92"
               style="fill:#2b2b2a;fill-opacity:1;fill-rule:nonzero;stroke:none"
               d="m 0,0 c -0.126,0.005 -0.316,0.005 -0.555,0.005 -0.246,0 -0.429,0 -0.562,-0.005 l -0.124,-0.005 0,0.144 c 0.241,0.02 0.333,0.141 0.353,0.376 0.015,0.154 0.02,0.246 0.02,0.751 l 0,0.857 c 0,0.134 -0.005,0.271 -0.005,0.418 0,0.271 -0.01,0.394 -0.051,0.501 -0.045,0.132 -0.143,0.195 -0.317,0.214 l 0,0.144 0.124,-0.007 c 0.133,-0.004 0.316,-0.004 0.562,-0.004 0.239,0 0.429,0 0.555,0.004 l 0.123,0.007 0,-0.144 C -0.097,3.241 -0.209,3.103 -0.23,2.874 -0.244,2.726 -0.244,2.583 -0.244,2.123 l 0,-0.857 c 0,-0.669 0.004,-0.781 0.056,-0.914 C -0.143,0.22 -0.05,0.153 0.123,0.139 l 0,-0.144 L 0,0 Z" /></g><g
             transform="translate(324.4866,701.9474)"
             id="g94"><path
               inkscape:connector-curvature="0"
               id="path96"
               style="fill:#2b2b2a;fill-opacity:1;fill-rule:nonzero;stroke:none"
               d="m 0,0 c -0.297,0 -0.512,0.04 -0.858,0.174 -0.016,0.195 -0.05,0.49 -0.092,0.734 l 0.194,0.031 c 0.122,-0.414 0.392,-0.626 0.785,-0.626 0.363,0 0.607,0.188 0.607,0.474 0,0.229 -0.158,0.387 -0.387,0.53 l -0.537,0.342 c -0.367,0.235 -0.582,0.479 -0.582,0.929 0,0.572 0.434,0.939 1.108,0.939 0.328,0 0.597,-0.061 0.836,-0.183 C 1.071,3.22 1.071,3.18 1.071,3.022 c 0,-0.184 0,-0.235 0.003,-0.378 l -0.192,0 c -0.072,0.367 -0.3,0.572 -0.654,0.572 -0.315,0 -0.545,-0.199 -0.545,-0.481 0,-0.244 0.167,-0.407 0.438,-0.581 L 0.555,1.874 C 0.969,1.603 1.203,1.342 1.203,0.935 1.203,0.378 0.714,0 0,0" /></g><g
             transform="translate(328.5886,702.0858)"
             id="g98"><path
               inkscape:connector-curvature="0"
               id="path100"
               style="fill:#2b2b2a;fill-opacity:1;fill-rule:nonzero;stroke:none"
               d="m 0,0 c -0.046,-0.076 -0.096,-0.092 -0.378,-0.092 -0.172,0 -0.342,0.01 -0.515,0.016 -0.245,0.004 -0.49,0.015 -0.735,0.015 -0.244,0 -0.49,-0.006 -0.735,-0.015 l 0,0.143 c 0.23,0.02 0.333,0.152 0.353,0.376 0.015,0.154 0.015,0.317 0.015,0.582 l 0,1.444 c 0,0.271 -0.015,0.394 -0.057,0.501 -0.045,0.132 -0.137,0.195 -0.311,0.215 l 0,0.143 2.39,0 C 0.027,3.18 0.02,3.026 0.02,2.879 0.02,2.756 0.016,2.637 0.027,2.516 l -0.185,0 C -0.194,2.91 -0.362,3.015 -0.969,3.015 -1.082,3.015 -1.23,3.011 -1.352,3.006 -1.361,2.807 -1.367,2.74 -1.367,2.444 l 0,-0.592 c 0.076,-0.005 0.137,-0.005 0.229,-0.005 0.531,0 0.696,0.077 0.725,0.352 l 0.185,0 C -0.239,2.118 -0.239,1.95 -0.239,1.693 c 0,-0.259 0.005,-0.412 0.011,-0.494 l -0.185,0 c -0.016,0.291 -0.154,0.362 -0.678,0.362 -0.094,0 -0.184,-0.004 -0.276,-0.004 0,-0.322 0.006,-0.644 0.006,-0.966 0,-0.213 0.035,-0.284 0.157,-0.316 0.077,-0.02 0.194,-0.025 0.352,-0.025 0.55,0 0.745,0.122 0.862,0.542 L 0.209,0.75 C 0.139,0.393 0.056,0.097 0,0" /></g><g
             transform="translate(268.3362,710.7449)"
             id="g102"><path
               inkscape:connector-curvature="0"
               id="path104"
               style="fill:#2b2b2a;fill-opacity:1;fill-rule:nonzero;stroke:none"
               d="m 0,0 c -0.044,-0.061 -0.119,-0.079 -0.298,-0.079 -0.243,0 -0.482,0.013 -0.725,0.018 -0.21,0.006 -0.368,0.011 -0.477,0.011 -0.149,0 -0.513,-0.005 -0.617,-0.011 l -0.069,-0.005 0.02,0.105 c 0.149,0.015 0.238,0.06 0.307,0.154 0.08,0.101 0.13,0.239 0.2,0.517 0.065,0.273 0.094,0.437 0.198,0.949 l 0.08,0.394 c 0.079,0.396 0.109,0.63 0.109,0.754 0,0.219 -0.079,0.308 -0.293,0.333 l 0.02,0.11 c 0.03,-0.006 0.054,-0.006 0.07,-0.006 0.183,0 0.362,-0.005 0.546,-0.005 0.288,0 0.477,0.005 0.561,0.005 0.016,0 0.046,0 0.08,0.006 L -0.308,3.14 C -0.462,3.13 -0.546,3.09 -0.621,2.99 -0.745,2.832 -0.815,2.619 -0.998,1.659 L -1.063,1.326 C -1.143,0.919 -1.172,0.779 -1.197,0.596 -1.208,0.536 -1.212,0.471 -1.212,0.442 c 0,-0.195 0.099,-0.254 0.417,-0.254 0.561,0 0.771,0.115 0.954,0.522 L 0.293,0.661 C 0.174,0.333 0.06,0.079 0,0" /></g><g
             transform="translate(269.2701,710.6251)"
             id="g106"><path
               inkscape:connector-curvature="0"
               id="path108"
               style="fill:#2b2b2a;fill-opacity:1;fill-rule:nonzero;stroke:none"
               d="m 0,0 c -0.099,0 -0.164,0.054 -0.164,0.144 0,0.044 0.015,0.125 0.04,0.234 0.064,0.263 0.154,0.622 0.203,0.81 0.07,0.258 0.1,0.437 0.1,0.507 0,0.064 -0.03,0.093 -0.085,0.093 -0.045,0 -0.089,-0.014 -0.193,-0.043 L -0.134,1.734 -0.149,1.874 C 0.124,1.978 0.392,2.042 0.527,2.042 0.601,2.042 0.631,2.017 0.631,1.958 0.631,1.899 0.606,1.74 0.517,1.392 L 0.442,1.098 C 0.318,0.616 0.288,0.448 0.288,0.367 c 0,-0.073 0.04,-0.118 0.114,-0.118 0.045,0 0.134,0.02 0.274,0.07 l 0.01,-0.14 C 0.422,0.075 0.14,0 0,0 m 0.541,2.539 c -0.154,0 -0.253,0.095 -0.253,0.238 0,0.179 0.129,0.304 0.308,0.304 0.149,0 0.244,-0.089 0.244,-0.234 0,-0.179 -0.124,-0.308 -0.299,-0.308" /></g><g
             transform="translate(272.0022,712.4536)"
             id="g110"><path
               inkscape:connector-curvature="0"
               id="path112"
               style="fill:#2b2b2a;fill-opacity:1;fill-rule:nonzero;stroke:none"
               d="m 0,0 c -0.089,0 -0.199,-0.034 -0.338,-0.109 -0.144,-0.074 -0.248,-0.154 -0.303,-0.228 -0.064,-0.09 -0.119,-0.244 -0.195,-0.573 -0.074,-0.308 -0.108,-0.5 -0.108,-0.57 0,-0.095 0.108,-0.15 0.308,-0.15 0.203,0 0.377,0.095 0.507,0.279 0.198,0.283 0.347,0.735 0.347,1.057 C 0.218,-0.104 0.144,0 0,0 m 0.005,-1.595 c -0.194,-0.168 -0.423,-0.238 -0.775,-0.238 -0.388,0 -0.622,0.063 -0.622,0.163 0,0.04 0.006,0.09 0.055,0.298 l 0.258,1.128 c 0.085,0.362 0.15,0.652 0.239,1.059 0.05,0.238 0.07,0.367 0.07,0.432 0,0.061 -0.029,0.095 -0.085,0.095 -0.035,0 -0.144,-0.025 -0.218,-0.05 l -0.006,0.143 0.061,0.021 c 0.267,0.09 0.491,0.14 0.595,0.14 0.065,0 0.104,-0.03 0.104,-0.086 0,-0.054 -0.024,-0.179 -0.108,-0.546 L -0.576,0.308 c -0.05,-0.213 -0.065,-0.292 -0.08,-0.362 0.313,0.183 0.586,0.267 0.835,0.267 0.303,0 0.452,-0.154 0.452,-0.466 0,-0.462 -0.264,-1.028 -0.626,-1.342" /></g><g
             transform="translate(274.2282,712.4694)"
             id="g114"><path
               inkscape:connector-curvature="0"
               id="path116"
               style="fill:#2b2b2a;fill-opacity:1;fill-rule:nonzero;stroke:none"
               d="m 0,0 c -0.238,0 -0.492,-0.328 -0.616,-0.81 l 0.05,0 c 0.462,0 0.809,0.242 0.809,0.561 C 0.243,-0.111 0.134,0 0,0 m -0.512,-0.994 c -0.035,0 -0.08,0 -0.144,0.005 -0.015,-0.09 -0.02,-0.165 -0.02,-0.24 0,-0.253 0.09,-0.387 0.264,-0.387 0.159,0 0.357,0.084 0.65,0.269 l 0.055,-0.169 c -0.368,-0.229 -0.647,-0.333 -0.9,-0.333 -0.308,0 -0.477,0.183 -0.477,0.516 0,0.82 0.558,1.53 1.198,1.53 0.313,0 0.497,-0.142 0.497,-0.391 0,-0.458 -0.487,-0.8 -1.123,-0.8" /></g><g
             transform="translate(276.8314,712.0262)"
             id="g118"><path
               inkscape:connector-curvature="0"
               id="path120"
               style="fill:#2b2b2a;fill-opacity:1;fill-rule:nonzero;stroke:none"
               d="m 0,0 -0.163,0.015 c 0.009,0.06 0.015,0.129 0.015,0.193 0,0.09 -0.081,0.156 -0.204,0.156 -0.075,0 -0.149,-0.045 -0.214,-0.12 -0.189,-0.213 -0.263,-0.552 -0.373,-1.104 l -0.094,-0.482 c -0.189,-0.01 -0.238,-0.014 -0.432,-0.039 0.05,0.188 0.084,0.337 0.124,0.507 l 0.11,0.462 c 0.074,0.312 0.109,0.507 0.109,0.611 0,0.124 -0.03,0.179 -0.09,0.179 -0.03,0 -0.074,-0.009 -0.125,-0.025 L -1.461,0.314 -1.475,0.462 c 0.244,0.099 0.522,0.179 0.646,0.179 0.049,0 0.079,-0.021 0.089,-0.069 0.015,-0.061 0.025,-0.129 0.03,-0.214 0.224,0.183 0.422,0.289 0.562,0.289 0.094,0 0.213,-0.05 0.328,-0.136 C 0.1,0.333 0.04,0.169 0,0" /></g><g
             transform="translate(278.517,712.3652)"
             id="g122"><path
               inkscape:connector-curvature="0"
               id="path124"
               style="fill:#2b2b2a;fill-opacity:1;fill-rule:nonzero;stroke:none"
               d="m 0,0 -0.413,0.009 -0.209,-1.018 c -0.055,-0.263 -0.059,-0.339 -0.059,-0.378 0,-0.07 0.035,-0.109 0.099,-0.109 0.035,0 0.109,0.019 0.228,0.054 l 0.05,0.014 0.015,-0.143 c -0.258,-0.104 -0.527,-0.174 -0.67,-0.174 -0.105,0 -0.17,0.05 -0.17,0.143 0,0.086 0.02,0.21 0.06,0.364 0.045,0.174 0.08,0.317 0.119,0.512 l 0.154,0.735 -0.263,-0.004 0.035,0.158 c 0.337,0.059 0.452,0.328 0.546,0.616 L -0.239,0.829 -0.363,0.242 0.049,0.247 0,0 Z" /></g><g
             transform="translate(280.0023,712.4694)"
             id="g126"><path
               inkscape:connector-curvature="0"
               id="path128"
               style="fill:#2b2b2a;fill-opacity:1;fill-rule:nonzero;stroke:none"
               d="m 0,0 c -0.239,0 -0.493,-0.328 -0.616,-0.81 l 0.049,0 c 0.463,0 0.81,0.242 0.81,0.561 C 0.243,-0.111 0.134,0 0,0 m -0.512,-0.994 c -0.034,0 -0.08,0 -0.144,0.005 -0.015,-0.09 -0.02,-0.165 -0.02,-0.24 0,-0.253 0.089,-0.387 0.263,-0.387 0.159,0 0.358,0.084 0.651,0.269 l 0.055,-0.169 c -0.367,-0.229 -0.646,-0.333 -0.9,-0.333 -0.307,0 -0.477,0.183 -0.477,0.516 0,0.82 0.557,1.53 1.198,1.53 0.313,0 0.497,-0.142 0.497,-0.391 0,-0.458 -0.487,-0.8 -1.123,-0.8 M 0.039,0.505 -0.119,0.634 0.487,1.32 0.934,1.211 0.039,0.505 Z" /></g><g
             transform="translate(289.5237,713.2689)"
             id="g130"><path
               inkscape:connector-curvature="0"
               id="path132"
               style="fill:#2b2b2a;fill-opacity:1;fill-rule:nonzero;stroke:none"
               d="m 0,0 -0.144,0 c 0.005,0.054 0.01,0.074 0.01,0.109 0,0.273 -0.179,0.368 -0.675,0.368 -0.165,0 -0.324,0 -0.487,-0.015 C -1.402,0.05 -1.47,-0.308 -1.555,-0.75 l 0.183,0 c 0.318,0 0.453,0.005 0.567,0.024 0.184,0.035 0.293,0.144 0.348,0.343 l 0.134,0 c -0.069,-0.294 -0.153,-0.711 -0.189,-0.964 l -0.134,0 c 0.004,0.034 0.01,0.066 0.01,0.086 0,0.213 -0.134,0.283 -0.54,0.283 -0.246,0 -0.334,-0.006 -0.424,-0.011 -0.025,-0.125 0,-0.014 -0.115,-0.587 -0.054,-0.278 -0.073,-0.452 -0.073,-0.541 0,-0.174 0.088,-0.219 0.422,-0.219 0.626,0 0.819,0.1 1.013,0.527 l 0.125,-0.05 c -0.11,-0.328 -0.229,-0.591 -0.298,-0.676 -0.051,-0.055 -0.116,-0.068 -0.324,-0.068 -0.173,0 -0.353,0.004 -0.526,0.009 -0.229,0.004 -0.463,0.009 -0.69,0.009 -0.234,0 -0.463,-0.005 -0.696,-0.005 l 0.019,0.105 c 0.149,0.015 0.239,0.06 0.308,0.154 0.079,0.101 0.129,0.239 0.199,0.517 0.064,0.277 0.084,0.392 0.199,0.949 l 0.08,0.394 c 0.078,0.387 0.109,0.63 0.109,0.754 0,0.219 -0.08,0.308 -0.294,0.333 l 0.021,0.11 2.26,0 C 0.085,0.502 0.035,0.233 0,0 m -0.944,1.059 -0.159,0.129 0.606,0.686 0.453,-0.111 -0.9,-0.704 z" /></g><g
             transform="translate(291.1037,710.4664)"
             id="g134"><path
               inkscape:connector-curvature="0"
               id="path136"
               style="fill:#2b2b2a;fill-opacity:1;fill-rule:nonzero;stroke:none"
               d="m 0,0 c -0.168,0.064 -0.372,0.134 -0.582,0.193 -0.342,-0.084 -0.581,-0.338 -0.581,-0.625 0,-0.269 0.229,-0.448 0.586,-0.448 0.433,0 0.83,0.294 0.83,0.611 C 0.253,-0.149 0.179,-0.07 0,0 m -0.074,2.012 c -0.269,0 -0.487,-0.283 -0.487,-0.622 0,-0.232 0.134,-0.392 0.328,-0.392 0.263,0 0.477,0.274 0.477,0.611 0,0.249 -0.125,0.403 -0.318,0.403 M 0.876,1.903 0.537,1.908 c 0.059,-0.104 0.08,-0.184 0.08,-0.299 0,-0.457 -0.383,-0.81 -0.88,-0.81 -0.095,0 -0.164,0.011 -0.268,0.041 -0.125,-0.075 -0.165,-0.111 -0.165,-0.154 0,-0.055 0.054,-0.08 0.274,-0.15 L -0.025,0.412 C 0.373,0.288 0.567,0.168 0.567,-0.12 c 0,-0.526 -0.522,-0.939 -1.188,-0.939 -0.546,0 -0.879,0.26 -0.879,0.681 0,0.387 0.247,0.571 0.656,0.675 -0.248,0.09 -0.304,0.13 -0.304,0.215 0,0.11 0.145,0.244 0.442,0.407 -0.153,0.109 -0.228,0.253 -0.228,0.453 0,0.471 0.378,0.828 0.874,0.828 0.131,0 0.225,-0.014 0.334,-0.054 l 0.655,0 -0.053,-0.243 z" /></g><g
             transform="translate(293.6174,712.4586)"
             id="g138"><path
               inkscape:connector-curvature="0"
               id="path140"
               style="fill:#2b2b2a;fill-opacity:1;fill-rule:nonzero;stroke:none"
               d="m 0,0 c -0.199,0 -0.398,-0.149 -0.567,-0.428 -0.188,-0.303 -0.322,-0.704 -0.322,-0.969 0,-0.154 0.073,-0.238 0.198,-0.238 0.184,0 0.507,0.164 0.631,0.288 0.07,0.07 0.109,0.17 0.158,0.359 0.08,0.302 0.155,0.587 0.2,0.913 C 0.188,-0.025 0.083,0 0,0 m 0.229,-1.838 c -0.09,0 -0.119,0.054 -0.165,0.298 -0.367,-0.208 -0.636,-0.303 -0.898,-0.303 -0.299,0 -0.473,0.154 -0.473,0.428 0,0.263 0.129,0.634 0.327,0.944 0.27,0.416 0.601,0.679 1.108,0.679 0.223,0 0.429,-0.039 0.642,-0.095 L 0.746,0.036 c -0.18,-0.573 -0.309,-1.204 -0.309,-1.417 0,-0.134 0.03,-0.208 0.089,-0.208 0.04,0 0.145,0.029 0.269,0.074 L 0.81,-1.669 C 0.557,-1.764 0.313,-1.838 0.229,-1.838" /></g><g
             transform="translate(296.0473,713.5422)"
             id="g142"><path
               inkscape:connector-curvature="0"
               id="path144"
               style="fill:#2b2b2a;fill-opacity:1;fill-rule:nonzero;stroke:none"
               d="m 0,0 c -0.165,-0.661 -0.329,-1.396 -0.487,-2.098 -0.051,-0.228 -0.075,-0.378 -0.075,-0.452 0,-0.073 0.035,-0.109 0.109,-0.109 0.05,0 0.139,0.02 0.273,0.06 l 0.01,-0.14 c -0.253,-0.099 -0.561,-0.183 -0.695,-0.183 -0.095,0 -0.149,0.054 -0.149,0.149 0,0.069 0.015,0.159 0.089,0.471 0.154,0.657 0.324,1.358 0.458,1.983 0.058,0.29 0.088,0.433 0.088,0.478 0,0.061 -0.03,0.088 -0.084,0.088 -0.05,0 -0.138,-0.018 -0.218,-0.048 l -0.01,0.148 c 0.253,0.09 0.532,0.16 0.67,0.16 0.071,0 0.104,-0.029 0.104,-0.085 C 0.083,0.374 0.064,0.258 0,0" /></g><g
             transform="translate(296.7374,710.6251)"
             id="g146"><path
               inkscape:connector-curvature="0"
               id="path148"
               style="fill:#2b2b2a;fill-opacity:1;fill-rule:nonzero;stroke:none"
               d="m 0,0 c -0.1,0 -0.164,0.054 -0.164,0.144 0,0.044 0.014,0.125 0.039,0.234 0.065,0.263 0.155,0.622 0.204,0.81 0.07,0.258 0.1,0.437 0.1,0.507 0,0.064 -0.03,0.093 -0.084,0.093 C 0.049,1.788 0.004,1.774 -0.1,1.745 L -0.135,1.734 -0.15,1.874 C 0.123,1.978 0.392,2.042 0.527,2.042 0.601,2.042 0.631,2.017 0.631,1.958 0.631,1.899 0.607,1.74 0.518,1.392 L 0.442,1.098 C 0.318,0.616 0.288,0.448 0.288,0.367 c 0,-0.073 0.039,-0.118 0.115,-0.118 0.044,0 0.133,0.02 0.272,0.07 l 0.01,-0.14 C 0.422,0.075 0.138,0 0,0 m 0.542,2.539 c -0.155,0 -0.254,0.095 -0.254,0.238 0,0.179 0.128,0.304 0.307,0.304 0.15,0 0.245,-0.089 0.245,-0.234 0,-0.179 -0.125,-0.308 -0.298,-0.308" /></g><g
             transform="translate(299.2361,712.3652)"
             id="g150"><path
               inkscape:connector-curvature="0"
               id="path152"
               style="fill:#2b2b2a;fill-opacity:1;fill-rule:nonzero;stroke:none"
               d="m 0,0 -0.412,0.009 -0.21,-1.018 c -0.055,-0.263 -0.06,-0.339 -0.06,-0.378 0,-0.07 0.035,-0.109 0.1,-0.109 0.034,0 0.109,0.019 0.227,0.054 l 0.05,0.014 0.016,-0.143 c -0.259,-0.104 -0.528,-0.174 -0.671,-0.174 -0.104,0 -0.169,0.05 -0.169,0.143 0,0.086 0.02,0.21 0.059,0.364 0.045,0.174 0.08,0.317 0.12,0.512 l 0.154,0.735 -0.263,-0.004 0.034,0.158 c 0.337,0.059 0.453,0.328 0.547,0.616 L -0.24,0.829 -0.364,0.242 0.048,0.247 0,0 Z" /></g><g
             transform="translate(300.7196,712.4694)"
             id="g154"><path
               inkscape:connector-curvature="0"
               id="path156"
               style="fill:#2b2b2a;fill-opacity:1;fill-rule:nonzero;stroke:none"
               d="m 0,0 c -0.238,0 -0.492,-0.328 -0.616,-0.81 l 0.05,0 c 0.462,0 0.81,0.242 0.81,0.561 C 0.244,-0.111 0.133,0 0,0 m -0.512,-0.994 c -0.034,0 -0.079,0 -0.145,0.005 -0.013,-0.09 -0.02,-0.165 -0.02,-0.24 0,-0.253 0.09,-0.387 0.265,-0.387 0.158,0 0.357,0.084 0.652,0.269 l 0.054,-0.169 c -0.369,-0.229 -0.647,-0.333 -0.901,-0.333 -0.308,0 -0.475,0.183 -0.475,0.516 0,0.82 0.556,1.53 1.195,1.53 0.316,0 0.498,-0.142 0.498,-0.391 0,-0.458 -0.487,-0.8 -1.123,-0.8 M 0.041,0.505 -0.118,0.634 0.487,1.32 0.935,1.211 0.041,0.505 Z" /></g><g
             transform="translate(310.1747,713.2734)"
             id="g158"><path
               inkscape:connector-curvature="0"
               id="path160"
               style="fill:#2b2b2a;fill-opacity:1;fill-rule:nonzero;stroke:none"
               d="m 0,0 -0.145,0 c 0.005,0.05 0.01,0.09 0.01,0.115 0,0.1 -0.035,0.179 -0.095,0.238 -0.094,0.089 -0.269,0.124 -0.644,0.124 -0.106,0 -0.246,-0.004 -0.369,-0.009 -0.09,-0.407 -0.169,-0.801 -0.259,-1.222 0.095,0 0.19,-0.007 0.284,-0.007 0.551,0 0.66,0.05 0.764,0.374 l 0.135,0 c -0.079,-0.324 -0.144,-0.641 -0.189,-0.969 l -0.139,0 c 0.005,0.034 0.01,0.064 0.01,0.084 0,0.085 -0.035,0.165 -0.095,0.208 -0.084,0.066 -0.183,0.081 -0.483,0.081 -0.158,0 -0.202,-0.006 -0.331,-0.011 l -0.065,-0.333 c -0.094,-0.475 -0.129,-0.701 -0.129,-0.839 0,-0.204 0.088,-0.297 0.293,-0.324 l -0.019,-0.104 -0.08,0.004 c -0.04,0 -0.258,0.007 -0.448,0.007 -0.199,0 -0.566,0 -0.631,-0.007 l -0.084,-0.004 0.02,0.104 c 0.15,0.016 0.238,0.061 0.308,0.154 0.079,0.101 0.134,0.239 0.199,0.518 0.068,0.283 0.093,0.432 0.197,0.949 l 0.082,0.393 c 0.077,0.392 0.109,0.63 0.109,0.754 0,0.22 -0.08,0.308 -0.295,0.333 l 0.021,0.11 2.206,0 C 0.088,0.498 0.039,0.24 0,0" /></g><g
             transform="translate(311.8663,712.0262)"
             id="g162"><path
               inkscape:connector-curvature="0"
               id="path164"
               style="fill:#2b2b2a;fill-opacity:1;fill-rule:nonzero;stroke:none"
               d="m 0,0 -0.163,0.015 c 0.009,0.06 0.014,0.129 0.014,0.193 0,0.09 -0.079,0.156 -0.204,0.156 -0.075,0 -0.149,-0.045 -0.214,-0.12 -0.189,-0.213 -0.264,-0.552 -0.372,-1.104 l -0.093,-0.482 c -0.19,-0.01 -0.24,-0.014 -0.433,-0.039 0.049,0.188 0.084,0.337 0.125,0.507 l 0.109,0.462 c 0.073,0.312 0.108,0.507 0.108,0.611 0,0.124 -0.03,0.179 -0.09,0.179 -0.03,0 -0.074,-0.009 -0.122,-0.025 L -1.46,0.314 -1.476,0.462 c 0.245,0.099 0.521,0.179 0.645,0.179 0.05,0 0.082,-0.021 0.091,-0.069 0.016,-0.061 0.025,-0.129 0.029,-0.214 0.225,0.183 0.422,0.289 0.562,0.289 0.095,0 0.213,-0.05 0.328,-0.136 C 0.1,0.333 0.041,0.169 0,0" /></g><g
             transform="translate(313.5972,712.4586)"
             id="g166"><path
               inkscape:connector-curvature="0"
               id="path168"
               style="fill:#2b2b2a;fill-opacity:1;fill-rule:nonzero;stroke:none"
               d="m 0,0 c -0.197,0 -0.396,-0.149 -0.566,-0.428 -0.188,-0.303 -0.322,-0.704 -0.322,-0.969 0,-0.154 0.075,-0.238 0.199,-0.238 0.184,0 0.506,0.164 0.63,0.288 0.07,0.07 0.11,0.17 0.16,0.359 0.079,0.302 0.154,0.587 0.198,0.913 C 0.19,-0.025 0.086,0 0,0 m 0.229,-1.838 c -0.089,0 -0.118,0.054 -0.163,0.298 -0.369,-0.208 -0.636,-0.303 -0.899,-0.303 -0.299,0 -0.472,0.154 -0.472,0.428 0,0.263 0.128,0.634 0.327,0.944 0.269,0.416 0.602,0.679 1.107,0.679 0.225,0 0.428,-0.039 0.642,-0.095 L 0.746,0.036 C 0.568,-0.537 0.437,-1.168 0.437,-1.381 c 0,-0.134 0.031,-0.208 0.091,-0.208 0.04,0 0.144,0.029 0.267,0.074 L 0.811,-1.669 C 0.557,-1.764 0.314,-1.838 0.229,-1.838" /></g><g
             transform="translate(316.1978,712.3652)"
             id="g170"><path
               inkscape:connector-curvature="0"
               id="path172"
               style="fill:#2b2b2a;fill-opacity:1;fill-rule:nonzero;stroke:none"
               d="m 0,0 -0.412,0.009 -0.21,-1.018 c -0.054,-0.263 -0.06,-0.339 -0.06,-0.378 0,-0.07 0.035,-0.109 0.099,-0.109 0.035,0 0.11,0.019 0.23,0.054 l 0.049,0.014 0.016,-0.143 c -0.26,-0.104 -0.527,-0.174 -0.672,-0.174 -0.104,0 -0.169,0.05 -0.169,0.143 0,0.086 0.02,0.21 0.06,0.364 0.045,0.174 0.08,0.317 0.119,0.512 l 0.154,0.735 -0.263,-0.004 0.035,0.158 c 0.338,0.059 0.453,0.328 0.546,0.616 L -0.24,0.829 -0.364,0.242 0.05,0.247 0,0 Z" /></g><g
             transform="translate(317.6828,712.4694)"
             id="g174"><path
               inkscape:connector-curvature="0"
               id="path176"
               style="fill:#2b2b2a;fill-opacity:1;fill-rule:nonzero;stroke:none"
               d="m 0,0 c -0.238,0 -0.491,-0.328 -0.616,-0.81 l 0.05,0 c 0.462,0 0.808,0.242 0.808,0.561 C 0.242,-0.111 0.134,0 0,0 m -0.512,-0.994 c -0.034,0 -0.079,0 -0.142,0.005 -0.018,-0.09 -0.021,-0.165 -0.021,-0.24 0,-0.253 0.089,-0.387 0.263,-0.387 0.158,0 0.358,0.084 0.652,0.269 l 0.052,-0.169 c -0.367,-0.229 -0.645,-0.333 -0.899,-0.333 -0.308,0 -0.477,0.183 -0.477,0.516 0,0.82 0.557,1.53 1.199,1.53 0.313,0 0.496,-0.142 0.496,-0.391 0,-0.458 -0.488,-0.8 -1.123,-0.8" /></g><g
             transform="translate(320.2877,712.0262)"
             id="g178"><path
               inkscape:connector-curvature="0"
               id="path180"
               style="fill:#2b2b2a;fill-opacity:1;fill-rule:nonzero;stroke:none"
               d="m 0,0 -0.165,0.015 c 0.01,0.06 0.014,0.129 0.014,0.193 0,0.09 -0.079,0.156 -0.203,0.156 -0.074,0 -0.149,-0.045 -0.213,-0.12 -0.19,-0.213 -0.264,-0.552 -0.373,-1.104 l -0.094,-0.482 c -0.189,-0.01 -0.24,-0.014 -0.432,-0.039 0.049,0.188 0.085,0.337 0.124,0.507 l 0.109,0.462 c 0.075,0.312 0.11,0.507 0.11,0.611 0,0.124 -0.031,0.179 -0.09,0.179 -0.031,0 -0.074,-0.009 -0.126,-0.025 L -1.462,0.314 -1.476,0.462 c 0.243,0.099 0.521,0.179 0.645,0.179 0.049,0 0.08,-0.021 0.089,-0.069 0.016,-0.061 0.025,-0.129 0.03,-0.214 0.224,0.183 0.423,0.289 0.561,0.289 0.095,0 0.214,-0.05 0.328,-0.136 C 0.1,0.333 0.038,0.169 0,0" /></g><g
             transform="translate(322.2688,710.6205)"
             id="g182"><path
               inkscape:connector-curvature="0"
               id="path184"
               style="fill:#2b2b2a;fill-opacity:1;fill-rule:nonzero;stroke:none"
               d="m 0,0 c -0.1,0 -0.158,0.059 -0.158,0.149 0,0.059 0.018,0.168 0.077,0.417 l 0.052,0.208 c 0.149,0.622 0.183,0.831 0.183,0.915 0,0.074 -0.034,0.115 -0.104,0.115 -0.084,0 -0.225,-0.05 -0.374,-0.14 C -0.482,1.575 -0.602,1.471 -0.661,1.381 -0.706,1.306 -0.74,1.177 -0.799,0.914 -0.878,0.552 -0.93,0.303 -0.969,0.07 -1.163,0.054 -1.213,0.049 -1.407,0.025 c 0.099,0.371 0.174,0.681 0.25,1.023 0.073,0.339 0.103,0.497 0.103,0.586 0,0.115 -0.035,0.17 -0.109,0.17 -0.04,0 -0.124,-0.02 -0.244,-0.059 l -0.009,0.138 c 0.238,0.095 0.496,0.163 0.617,0.163 0.107,0 0.145,-0.063 0.145,-0.297 l 0,-0.04 C -0.28,1.922 0.109,2.046 0.378,2.046 0.541,2.046 0.607,2.008 0.607,1.908 0.607,1.804 0.575,1.639 0.471,1.236 0.412,1.008 0.358,0.765 0.337,0.656 0.307,0.511 0.292,0.423 0.292,0.367 c 0,-0.075 0.041,-0.114 0.109,-0.114 0.047,0 0.14,0.02 0.258,0.064 L 0.675,0.174 C 0.412,0.079 0.113,0 0,0" /></g><g
             transform="translate(323.8179,710.6251)"
             id="g186"><path
               inkscape:connector-curvature="0"
               id="path188"
               style="fill:#2b2b2a;fill-opacity:1;fill-rule:nonzero;stroke:none"
               d="m 0,0 c -0.1,0 -0.163,0.054 -0.163,0.144 0,0.044 0.015,0.125 0.038,0.234 0.066,0.263 0.156,0.622 0.206,0.81 0.068,0.258 0.098,0.437 0.098,0.507 0,0.064 -0.03,0.093 -0.084,0.093 C 0.05,1.788 0.004,1.774 -0.1,1.745 L -0.134,1.734 -0.148,1.874 C 0.124,1.978 0.394,2.042 0.527,2.042 0.602,2.042 0.629,2.017 0.629,1.958 0.629,1.899 0.607,1.74 0.518,1.392 L 0.441,1.098 C 0.319,0.616 0.289,0.448 0.289,0.367 c 0,-0.073 0.039,-0.118 0.114,-0.118 0.045,0 0.133,0.02 0.274,0.07 L 0.686,0.179 C 0.423,0.075 0.138,0 0,0 m 0.543,2.539 c -0.154,0 -0.254,0.095 -0.254,0.238 0,0.179 0.129,0.304 0.306,0.304 0.151,0 0.246,-0.089 0.246,-0.234 0,-0.179 -0.125,-0.308 -0.298,-0.308" /></g><g
             transform="translate(326.3167,712.3652)"
             id="g190"><path
               inkscape:connector-curvature="0"
               id="path192"
               style="fill:#2b2b2a;fill-opacity:1;fill-rule:nonzero;stroke:none"
               d="m 0,0 -0.412,0.009 -0.21,-1.018 c -0.055,-0.263 -0.059,-0.339 -0.059,-0.378 0,-0.07 0.036,-0.109 0.1,-0.109 0.036,0 0.108,0.019 0.228,0.054 l 0.05,0.014 0.014,-0.143 c -0.256,-0.104 -0.526,-0.174 -0.671,-0.174 -0.104,0 -0.167,0.05 -0.167,0.143 0,0.086 0.018,0.21 0.059,0.364 0.045,0.174 0.079,0.317 0.12,0.512 l 0.152,0.735 -0.263,-0.004 0.036,0.158 c 0.337,0.059 0.451,0.328 0.546,0.616 L -0.24,0.829 -0.362,0.242 0.05,0.247 0,0 Z" /></g><g
             transform="translate(327.8024,712.4694)"
             id="g194"><path
               inkscape:connector-curvature="0"
               id="path196"
               style="fill:#2b2b2a;fill-opacity:1;fill-rule:nonzero;stroke:none"
               d="m 0,0 c -0.238,0 -0.492,-0.328 -0.616,-0.81 l 0.048,0 c 0.464,0 0.81,0.242 0.81,0.561 C 0.242,-0.111 0.134,0 0,0 m -0.512,-0.994 c -0.034,0 -0.079,0 -0.144,0.005 -0.015,-0.09 -0.019,-0.165 -0.019,-0.24 0,-0.253 0.088,-0.387 0.263,-0.387 0.158,0 0.357,0.084 0.649,0.269 l 0.056,-0.169 c -0.368,-0.229 -0.646,-0.333 -0.9,-0.333 -0.306,0 -0.477,0.183 -0.477,0.516 0,0.82 0.556,1.53 1.199,1.53 0.314,0 0.496,-0.142 0.496,-0.391 0,-0.458 -0.487,-0.8 -1.123,-0.8 M 0.04,0.505 -0.12,0.634 0.486,1.32 0.934,1.211 0.04,0.505 Z" /></g><g
             transform="translate(304.5435,711.5455)"
             id="g198"><path
               inkscape:connector-curvature="0"
               id="path200"
               style="fill:#2b2b2a;fill-opacity:1;fill-rule:nonzero;stroke:none"
               d="M 0,0 C 0.333,0 0.603,0.269 0.603,0.603 0.603,0.936 0.333,1.207 0,1.207 -0.333,1.207 -0.603,0.936 -0.603,0.603 -0.603,0.269 -0.333,0 0,0" /></g><g
             transform="translate(283.8387,711.5455)"
             id="g202"><path
               inkscape:connector-curvature="0"
               id="path204"
               style="fill:#2b2b2a;fill-opacity:1;fill-rule:nonzero;stroke:none"
               d="M 0,0 C 0.334,0 0.603,0.269 0.603,0.603 0.603,0.936 0.334,1.207 0,1.207 -0.333,1.207 -0.603,0.936 -0.603,0.603 -0.603,0.269 -0.333,0 0,0" /></g><g
             transform="translate(266.473,708.429)"
             id="g206"><path
               inkscape:connector-curvature="0"
               id="path208"
               style="fill:none;stroke:#2b2b2a;stroke-width:0.398;stroke-linecap:butt;stroke-linejoin:miter;stroke-miterlimit:4;stroke-dasharray:none;stroke-opacity:1"
               d="M 0,0 61.975,0" /></g><g
             transform="translate(329.2996,716.0876)"
             id="g210"><path
               inkscape:connector-curvature="0"
               id="path212"
               style="fill:#ffffff;fill-opacity:1;fill-rule:nonzero;stroke:none"
               d="m 0,0 -0.009,22.345 -63.489,0 L -63.498,0 0,0 Z" /></g><g
             transform="translate(281.1853,723.4254)"
             id="g214"><path
               inkscape:connector-curvature="0"
               id="path216"
               style="fill:#ffffff;fill-opacity:1;fill-rule:nonzero;stroke:none"
               d="m 0,0 c 0.042,0.086 0.095,0.095 0.143,0.19 0,0.048 0,0.094 -0.048,0.094 -0.19,-0.046 -0.332,-0.236 -0.38,-0.426 0,-0.048 0.048,-0.048 0.095,-0.048 0.095,0.048 0.142,0.095 0.19,0.19" /></g><g
             transform="translate(294.3096,718.7349)"
             id="g218"><path
               inkscape:connector-curvature="0"
               id="path220"
               style="fill:#264896;fill-opacity:1;fill-rule:nonzero;stroke:none"
               d="M 0,0 C -0.047,0 -0.095,0.047 -0.047,0.095 0.124,0.222 0.294,0.35 0.464,0.478 0.452,0.477 0.44,0.474 0.426,0.474 0.38,0.474 0.38,0.521 0.38,0.569 -0.236,0.663 -0.71,0.236 -1.137,-0.142 c -0.095,-0.048 -0.19,0.047 -0.237,0.047 -0.71,-0.236 -1.232,-0.853 -1.942,-1.138 l 0,0.096 C -3.6,-1.233 -3.878,-1.404 -4.169,-1.47 -4.596,-1.564 -4.974,-1.516 -5.353,-1.516 -6.302,-1.611 -7.249,-1.847 -8.197,-1.99 l 6.444,0 c 0.711,0.805 1.374,1.516 2.275,2.18 C 0.569,0.236 0.569,0.331 0.616,0.378 0.38,0.285 0.238,0.095 0,0 m -9.665,0.711 c -0.095,0 -0.285,-0.048 -0.237,0.046 0.047,0.238 0.378,0.238 0.568,0.333 0.095,0.047 0.237,0.142 0.331,0.095 C -8.907,1.042 -8.766,1.09 -8.671,0.995 -8.955,0.711 -9.334,0.852 -9.665,0.711 m -0.996,0.757 c -0.046,0.048 0.143,0 0.19,0.095 l -0.379,0 c -0.048,0 -0.048,0.048 -0.048,0.095 -0.237,-0.047 -0.521,-0.142 -0.757,-0.19 -0.332,-0.095 -0.616,-0.331 -0.995,-0.426 -0.522,-0.19 -0.948,-0.616 -1.517,-0.806 -0.047,0 -0.047,0.049 -0.047,0.095 0.047,0.143 0.237,0.19 0.333,0.332 0,0.048 0,0.094 -0.049,0.094 0.379,0.521 0.901,0.806 1.375,1.234 l 0,0.141 c 0.141,0.19 0.377,0.285 0.473,0.521 0.047,0.143 0.237,0.332 0.474,0.428 -0.047,0.047 -0.142,0.047 -0.142,0.141 -0.189,0 -0.38,-0.094 -0.569,0.047 0.093,0.093 0.201,0.136 0.314,0.167 -0.048,0.006 -0.091,0.025 -0.125,0.071 -0.048,0.093 0.093,0.199 0.238,0.236 0.19,0.047 0.426,0.047 0.569,0.189 -0.332,0.048 -0.712,-0.094 -1.044,0.096 0.237,0.616 0.617,1.137 1.186,1.421 0.046,0 0.142,0 0.142,-0.048 0,-0.236 -0.142,-0.426 -0.38,-0.473 0.38,-0.095 0.758,-0.095 1.138,-0.284 -0.047,-0.095 -0.143,-0.049 -0.19,-0.049 0.238,-0.141 0.521,-0.046 0.758,-0.236 -0.142,-0.143 -0.284,0 -0.426,0 C -8.671,3.932 -7.106,3.6 -5.875,2.653 -6.918,2.132 -8.008,1.894 -9.144,1.658 c -0.142,0 -0.237,0 -0.38,0.048 0,-0.048 0,-0.143 -0.047,-0.143 -0.189,0 -0.331,0 -0.473,-0.095 -0.189,-0.095 -0.474,-0.141 -0.617,0 m -6.254,0.285 c 0,0 -0.047,0.046 -0.047,0.094 0.616,0.806 1.09,1.565 1.516,2.417 0.616,0.331 1.128,0.815 1.611,1.327 0.806,0.852 1.657,1.611 2.654,2.085 0.378,0.142 0.853,0.095 1.231,-0.048 -0.142,-0.19 -0.378,-0.142 -0.568,-0.283 -0.048,0 -0.095,0 -0.143,0.047 0.048,0.046 0.048,0.094 0.048,0.141 -0.474,-0.521 -1.137,-0.757 -1.517,-1.373 -0.284,-0.474 -0.473,-1.09 -1.089,-1.232 -0.19,-0.048 0.047,0.142 -0.048,0.094 -1.469,-0.899 -2.51,-1.989 -3.648,-3.269 m 7.439,-3.554 c 0.047,0.095 0.19,0.142 0.284,0.237 0.048,0 0.095,0 0.095,-0.047 1.517,1.185 3.605,0.891 5.355,1.516 1.158,0.414 1.892,1.347 1.943,1.848 0.004,0.046 -0.048,0.094 -0.048,0.094 -0.616,-0.662 -1.327,-1.184 -2.085,-1.562 -0.995,-0.521 -2.084,-0.427 -3.128,-0.569 0.049,0.094 0.142,0.094 0.238,0.094 0,0.142 0.094,0.19 0.189,0.285 l 0.142,0 c 0.048,0 0.048,0.095 0.095,0.095 0.094,0 0.237,0.046 0.19,0.046 -0.143,0.19 -0.427,-0.141 -0.664,0 0.095,0.095 0.048,0.238 0.142,0.285 l 0.189,0 c 0,0.095 0.096,0.19 0.096,0.19 0.711,0.492 1.346,0.802 2.037,1.136 -0.142,0 -0.181,-0.072 -0.379,-0.048 -0.088,0.063 0,0.143 0.096,0.143 0.52,0.142 0.947,0.427 1.468,0.616 -0.19,0 -0.332,-0.141 -0.521,0 0.095,0.047 0.142,0.143 0.284,0.143 l 0,0.142 c 0,0.046 0.047,0.046 0.095,0.046 -0.048,0 -0.095,0.049 -0.095,0.049 0.047,0.095 0.19,0.047 0.284,0.143 -0.047,0 -0.142,0 -0.142,0.047 0.142,0.188 0.378,0.236 0.616,0.284 -0.048,0.095 -0.189,0 -0.189,0.095 0,0.046 0.047,0.046 0.094,0.046 l -0.094,0 c -0.096,0.047 -0.049,0.144 -0.049,0.19 0.284,0.332 0.284,0.757 0.427,1.137 -0.047,0 -0.095,0 -0.095,0.048 -0.474,-0.521 -1.231,-0.712 -1.942,-0.9 l -0.237,0 C -5.022,3.932 -5.353,3.932 -5.591,4.075 -5.78,4.169 -5.875,4.312 -6.064,4.454 -6.443,4.69 -6.822,4.88 -7.249,5.022 c -1.184,0.379 -2.416,0.569 -3.649,0.522 0.522,0.283 1.097,0.308 1.659,0.473 0.806,0.238 1.564,0.521 2.417,0.474 -0.143,0.047 -0.332,0 -0.475,0 C -7.96,6.538 -8.623,6.35 -9.334,6.206 -9.808,6.112 -10.233,5.922 -10.707,5.827 -10.993,5.732 -11.135,5.449 -11.466,5.496 l 0,0.143 c 0.473,0.567 1.042,1.137 1.801,1.183 0.853,0.144 1.657,0 2.511,-0.094 0.615,-0.047 1.184,-0.19 1.801,-0.332 0.236,0 0.283,-0.379 0.474,-0.426 0.283,-0.095 0.568,0 0.852,-0.19 0,0.095 -0.048,0.19 0,0.285 0.19,0.19 0.427,-0.048 0.616,0.047 0.378,0.238 -0.331,0.664 -0.521,0.995 0,0.047 0.046,0.095 0.046,0.095 0.381,-0.333 0.665,-0.711 1.138,-0.947 0.237,-0.095 0.807,-0.238 0.712,0.047 -0.238,0.52 -0.712,0.947 -1.09,1.421 l 0,0.19 c -0.095,0 -0.095,0.048 -0.142,0.095 l 0,0.188 c -0.19,0.096 -0.143,0.284 -0.237,0.427 -0.142,0.237 -0.048,0.569 -0.142,0.854 -0.095,0.283 -0.143,0.521 -0.19,0.804 -0.143,0.805 -0.332,1.516 -0.427,2.275 -0.095,0.901 0.522,1.611 0.948,2.417 0.331,0.568 0.71,1.137 1.326,1.516 0.143,0.568 0.521,1.042 0.901,1.516 0.426,0.521 1.089,0.758 1.658,1.042 -0.006,0 -28.381,0 -28.381,0 l 0,-21.037 c 0,0 14.158,-0.013 14.167,0 0.742,0.832 2.165,1.488 3.221,0.9 -0.52,-0.285 -0.995,-0.616 -1.468,-0.9 -0.011,-0.005 2.349,-0.007 2.368,0 0.396,0.144 0.758,0.379 1.138,0.568 -0.331,-0.094 -0.617,-0.237 -0.9,-0.425 -0.048,0 -0.19,-0.049 -0.19,0.046" /></g><g
             transform="translate(308.8073,719.682)"
             id="g222"><path
               inkscape:connector-curvature="0"
               id="path224"
               style="fill:#e41f25;fill-opacity:1;fill-rule:nonzero;stroke:none"
               d="M 0,0 C 0.114,0.342 0.237,0.711 0.047,1.044 -0.236,1.47 0.333,1.611 0.521,1.896 0.664,2.134 0.426,2.275 0.379,2.511 0.333,2.606 0.142,2.56 0.047,2.701 0.379,2.843 0.901,3.127 0.664,3.553 0.521,3.792 0.285,4.169 0.568,4.407 0.901,4.597 1.422,4.549 1.563,4.88 1.799,5.449 1.279,5.922 0.996,6.398 0.853,6.681 0.664,6.87 0.473,7.155 0.285,7.486 0.047,7.771 -0.048,8.151 -0.191,8.53 0,8.861 0,9.24 c 0.047,0.711 -0.141,1.421 -0.331,2.131 -0.143,0.333 -0.191,0.711 -0.331,1.044 -0.05,0.189 -0.097,0.379 -0.238,0.567 -0.048,0.095 -0.048,0.238 0,0.333 0.188,0.141 0.378,0.285 0.569,0.474 0.14,0.237 0.047,0.568 -0.191,0.711 -0.331,0.142 -0.284,-0.333 -0.521,-0.428 l -0.142,0 c -0.046,0.143 0.049,0.19 0.142,0.285 0,0.047 0,0.143 -0.047,0.143 -0.19,0 -0.379,0.047 -0.426,0.142 -0.473,0.662 -1.138,0.995 -1.847,1.278 0.189,-0.047 0.379,-0.094 0.567,-0.094 0.333,-0.048 0.711,-0.048 0.995,0.094 0.238,0.095 0.285,0.474 0.378,0.712 0.097,0.188 -0.046,0.473 -0.14,0.616 -0.238,0.378 -0.617,0.616 -0.995,0.806 l 22.364,0 0,-20.992 -26.581,0 c 0.284,0.949 0.805,1.801 1.657,2.417 0.19,0.095 0.428,0.143 0.665,0.19 0.805,0 1.611,-0.238 2.416,-0.331 0.095,0 0.188,-0.049 0.285,-0.096 0.283,-0.048 0.616,-0.048 0.899,0.047 C -0.522,-0.616 -0.141,-0.426 0,0" /></g><g
             transform="translate(307.0066,729.0159)"
             id="g226"><path
               inkscape:connector-curvature="0"
               id="path228"
               style="fill:#9e9e9e;fill-opacity:1;fill-rule:nonzero;stroke:none"
               d="m 0,0 c -0.278,0.07 -0.52,0 -0.806,0 -0.377,-0.093 -0.71,-0.142 -1.041,-0.283 0.284,0.19 0.569,0.378 0.9,0.473 0.236,0.048 0.473,0.19 0.711,0.19 C 0.048,0.428 0.331,0.523 0.57,0.428 0.808,0.331 1.183,0.331 1.233,0.19 1.327,-0.093 1.089,-0.378 0.808,-0.568 0.758,-0.662 0.947,-0.709 0.947,-0.804 0.9,-0.9 0.758,-0.947 0.664,-0.947 0.57,-0.994 0.475,-1.137 0.378,-1.232 c 0.097,0 0,-0.141 0.097,-0.141 -0.19,-0.236 0.095,-0.712 -0.19,-0.806 -0.333,-0.094 -0.711,-0.094 -1.091,0 0.191,0.047 0.427,-0.048 0.57,0.142 l 0,0.19 c 0,0.046 -0.048,0.046 -0.095,0.046 -0.048,-0.046 -0.095,-0.046 -0.095,-0.046 0,0.094 -0.094,0.189 -0.141,0.189 -0.286,-0.047 -0.522,0.095 -0.711,0.285 0.142,0.047 0.283,0.095 0.425,0.047 0.142,0 0.096,0.237 0.238,0.332 l 0.141,0 c 0.286,0.378 0.852,0.473 0.949,0.852 C 0.475,-0.047 0.19,-0.047 0,0" /></g><path
             inkscape:connector-curvature="0"
             id="path230"
             style="fill:#264896;fill-opacity:1;fill-rule:nonzero;stroke:none"
             d="m 341.159,637.084 -87.043,0 0,54.083 87.043,0 0,-54.083 z" /></g></g><g
         id="g232"><g
           clip-path="url(#clipPath236)"
           id="g234"><path
             inkscape:connector-curvature="0"
             id="path240"
             style="fill:none;stroke:#2b291f;stroke-width:0.398;stroke-linecap:butt;stroke-linejoin:miter;stroke-miterlimit:4;stroke-dasharray:none;stroke-opacity:1"
             d="m 341.159,637.084 -87.043,0 0,111.914 87.043,0 0,-111.914 z" /><g
             transform="translate(254.1133,691.1299)"
             id="g242"><path
               inkscape:connector-curvature="0"
               id="path244"
               style="fill:none;stroke:#2b2b2a;stroke-width:0.40000001;stroke-linecap:butt;stroke-linejoin:miter;stroke-miterlimit:4;stroke-dasharray:none;stroke-opacity:1"
               d="M 0,0 87.071,0" /></g></g></g><g
         id="g246"><g
           clip-path="url(#clipPath250)"
           id="g248"><g
             transform="translate(274.677,678.0471)"
             id="g254"><path
               inkscape:connector-curvature="0"
               id="path256"
               style="fill:#ffffff;fill-opacity:1;fill-rule:nonzero;stroke:none"
               d="m 0,0 c -0.718,-1.365 -1.405,-2.742 -2.064,-4.138 -0.309,-0.663 -0.398,-0.925 -0.518,-1.251 -0.05,0.011 -0.1,0.022 -0.139,0.022 -0.04,0 -0.08,-0.011 -0.13,-0.022 -0.18,0.431 -0.289,0.694 -0.469,1.062 -0.697,1.417 -1.495,3.025 -2.153,4.232 -0.239,-1.575 -0.419,-4.348 -0.409,-5.294 -0.159,0.042 -0.249,0.064 -0.379,0.064 -0.199,0 -0.378,-0.042 -0.478,-0.064 0.1,0.495 0.797,5.011 1.027,7.311 0.05,-0.01 0.109,-0.021 0.169,-0.021 0.05,0 0.13,0.011 0.2,0.021 0.289,-0.693 2.243,-4.58 2.881,-5.661 1.605,3.14 1.784,3.487 2.372,4.664 0.24,0.493 0.29,0.598 0.459,0.997 0.07,-0.01 0.12,-0.021 0.18,-0.021 0.049,0 0.109,0.011 0.189,0.021 0.229,-2.216 0.558,-5.336 0.817,-7.027 0.01,-0.073 0.02,-0.147 0.06,-0.284 -0.269,0.042 -0.379,0.064 -0.558,0.064 -0.289,0 -0.449,-0.032 -0.618,-0.064 C 0.429,-4.264 0.03,-0.284 0,0" /></g><g
             transform="translate(279.1778,679.9276)"
             id="g258"><path
               inkscape:connector-curvature="0"
               id="path260"
               style="fill:#ffffff;fill-opacity:1;fill-rule:nonzero;stroke:none"
               d="m 0,0 c 0.159,-0.042 0.279,-0.063 0.548,-0.063 0.279,0 0.409,0.021 0.578,0.063 -0.06,-1.25 -0.079,-2.5 -0.079,-3.751 0,-1.89 0.039,-2.731 0.069,-3.518 -0.189,0.032 -0.399,0.063 -0.618,0.063 -0.219,0 -0.369,-0.031 -0.528,-0.063 0.07,1.144 0.099,1.681 0.099,3.74 0,1.512 0,1.606 -0.069,3.529" /></g><g
             transform="translate(284.074,677.4275)"
             id="g262"><path
               inkscape:connector-curvature="0"
               id="path264"
               style="fill:#ffffff;fill-opacity:1;fill-rule:nonzero;stroke:none"
               d="m 0,0 c 0.03,-2.542 0.07,-3.141 0.16,-4.769 -0.12,0.032 -0.24,0.063 -0.419,0.063 -0.179,0 -0.269,-0.031 -0.389,-0.063 0.05,0.526 0.13,2.332 0.13,3.424 0,0.42 -0.03,2.248 -0.03,2.626 l 0,1.261 c 0.06,-0.011 0.11,-0.021 0.159,-0.021 0.06,0 0.12,0.01 0.21,0.021 L 0.15,2.132 C 0.419,1.806 0.658,1.523 1.266,0.851 3.26,-1.366 3.479,-1.618 4.745,-2.973 l 0,0.389 c 0,2.678 0,3.603 -0.129,5.126 0.11,-0.032 0.229,-0.063 0.389,-0.063 0.159,0 0.299,0.031 0.428,0.063 -0.169,-1.513 -0.169,-3.036 -0.169,-4.549 0,-0.819 0,-2.08 0.04,-2.825 -0.08,0.011 -0.13,0.021 -0.19,0.021 -0.05,0 -0.089,-0.01 -0.159,-0.021 -0.309,0.399 -1.805,2.153 -2.502,2.836 -0.17,0.168 -0.339,0.346 -0.509,0.525 L 0,0.662 0,0 Z" /></g><g
             transform="translate(292.6515,679.9276)"
             id="g266"><path
               inkscape:connector-curvature="0"
               id="path268"
               style="fill:#ffffff;fill-opacity:1;fill-rule:nonzero;stroke:none"
               d="m 0,0 c 0.159,-0.042 0.279,-0.063 0.548,-0.063 0.279,0 0.409,0.021 0.578,0.063 -0.06,-1.25 -0.079,-2.5 -0.079,-3.751 0,-1.89 0.039,-2.731 0.069,-3.518 -0.189,0.032 -0.398,0.063 -0.618,0.063 -0.219,0 -0.369,-0.031 -0.528,-0.063 0.07,1.144 0.1,1.681 0.1,3.74 0,1.512 0,1.606 -0.07,3.529" /></g><g
             transform="translate(300.289,678.5931)"
             id="g270"><path
               inkscape:connector-curvature="0"
               id="path272"
               style="fill:#ffffff;fill-opacity:1;fill-rule:nonzero;stroke:none"
               d="m 0,0 c -0.129,0.399 -0.468,0.977 -1.385,0.977 -1.087,0 -1.276,-0.84 -1.276,-1.208 0,-0.83 0.658,-1.113 1.166,-1.323 1.086,-0.441 1.276,-0.515 1.625,-0.82 0.458,-0.388 0.558,-0.945 0.558,-1.344 0,-1.092 -0.728,-2.342 -2.502,-2.342 -0.658,0 -1.296,0.167 -1.815,0.577 0.15,0.535 0.17,0.851 0.18,0.988 l 0.13,0 c 0.288,-0.631 0.877,-1.093 1.664,-1.093 1.047,0 1.476,0.725 1.476,1.397 0,0.852 -0.568,1.166 -1.236,1.45 -1.167,0.515 -1.296,0.567 -1.566,0.819 -0.338,0.294 -0.498,0.819 -0.498,1.303 0,1.355 1.037,2.037 2.213,2.037 0.778,0 1.456,-0.315 1.695,-0.483 C 0.349,0.778 0.17,0.357 0.14,0 L 0,0 Z" /></g><g
             transform="translate(305.0867,679.3388)"
             id="g274"><path
               inkscape:connector-curvature="0"
               id="path276"
               style="fill:#ffffff;fill-opacity:1;fill-rule:nonzero;stroke:none"
               d="m 0,0 c -1.047,-0.01 -1.774,-0.052 -2.213,-0.147 0.02,0.116 0.04,0.21 0.04,0.368 0,0.168 -0.02,0.262 -0.04,0.368 0.618,-0.064 1.894,-0.064 2.682,-0.064 0.977,0 2.034,0 2.671,0.064 C 3.121,0.494 3.101,0.379 3.101,0.221 3.101,0.063 3.121,-0.031 3.14,-0.147 2.832,-0.083 2.214,-0.01 1.017,0 c -0.01,-0.724 -0.02,-1.46 -0.02,-2.174 0,-1.271 -0.04,-2.92 0.07,-4.506 C 0.728,-6.628 0.509,-6.617 0.429,-6.617 0.2,-6.617 0,-6.659 -0.089,-6.68 -0.01,-5.525 0.02,-3.992 0.02,-2.574 0.02,-1.618 0.01,-0.714 0,0" /></g><g
             transform="translate(312.6163,680.3475)"
             id="g278"><path
               inkscape:connector-curvature="0"
               id="path280"
               style="fill:#ffffff;fill-opacity:1;fill-rule:nonzero;stroke:none"
               d="m 0,0 -1.665,1.092 c -0.159,0.106 -0.179,0.231 -0.179,0.315 0,0.2 0.159,0.368 0.339,0.368 0.149,0 0.189,-0.042 0.508,-0.378 L 0.349,0 0,0 Z m 1.156,-3.519 c -0.02,-0.115 -0.04,-0.21 -0.04,-0.357 0,-0.115 0.03,-0.21 0.04,-0.326 -0.518,0.074 -1.116,0.105 -1.545,0.105 -0.269,0 -0.558,-0.01 -0.807,-0.021 -0.01,-0.452 -0.02,-0.924 -0.02,-1.375 0,-0.546 0.02,-1.345 0.03,-1.629 0.638,0 1.445,0 2.622,0.126 -0.02,-0.115 -0.04,-0.21 -0.04,-0.357 0,-0.146 0.02,-0.231 0.04,-0.336 -0.459,0.063 -0.928,0.063 -1.386,0.063 -0.768,0 -1.545,-0.031 -2.313,-0.063 0.06,0.788 0.11,1.47 0.11,3.76 0,1.051 -0.02,2.469 -0.08,3.498 0.698,-0.063 1.386,-0.063 2.083,-0.063 0.509,0 1.008,0.011 1.516,0.063 -0.02,-0.115 -0.04,-0.231 -0.04,-0.367 0,-0.147 0.02,-0.231 0.04,-0.336 -0.369,0.073 -0.718,0.136 -1.585,0.136 -0.359,0 -0.539,0 -0.967,-0.021 -0.02,-0.41 -0.02,-0.588 -0.02,-1.208 0,-0.683 0,-0.809 0.01,-1.365 0.787,-0.011 1.575,-0.022 2.352,0.073" /></g><g
             transform="translate(318.3016,679.465)"
             id="g282"><path
               inkscape:connector-curvature="0"
               id="path284"
               style="fill:#ffffff;fill-opacity:1;fill-rule:nonzero;stroke:none"
               d="m 0,0 c -0.289,0 -0.498,-0.031 -0.628,-0.052 -0.02,-0.473 -0.02,-0.956 -0.02,-1.429 0,-0.483 0.01,-1.219 0.01,-1.439 0.19,-0.021 0.289,-0.021 0.528,-0.011 0.449,0.022 1.824,0.084 1.824,1.544 C 1.714,-0.158 0.728,0 0,0 M 3.37,-6.807 C 3.16,-6.774 3,-6.743 2.782,-6.743 c -0.21,0 -0.439,-0.031 -0.718,-0.064 -0.948,1.576 -1.676,2.564 -2.443,3.519 l -0.259,0 c 0,-0.745 -0.01,-1.837 0.07,-3.519 -0.17,0.042 -0.399,0.064 -0.578,0.064 -0.27,0 -0.38,-0.031 -0.529,-0.064 0.05,1.24 0.07,2.49 0.07,4.024 0,0.976 -0.03,2.069 -0.06,3.246 0.379,-0.042 0.658,-0.042 0.867,-0.042 0.18,0 0.998,0.01 1.157,0.01 1.187,0 1.555,-0.158 1.884,-0.442 0.379,-0.325 0.509,-0.755 0.509,-1.26 0,-1.502 -1.346,-1.765 -1.954,-1.88 C 1.166,-3.75 3.25,-6.501 3.37,-6.68 l 0,-0.127 z" /></g><g
             transform="translate(327.2461,676.8287)"
             id="g286"><path
               inkscape:connector-curvature="0"
               id="path288"
               style="fill:#ffffff;fill-opacity:1;fill-rule:nonzero;stroke:none"
               d="m 0,0 c -0.02,-0.115 -0.039,-0.21 -0.039,-0.357 0,-0.116 0.03,-0.21 0.039,-0.326 -0.518,0.074 -1.116,0.105 -1.545,0.105 -0.269,0 -0.558,-0.01 -0.807,-0.021 -0.01,-0.452 -0.02,-0.924 -0.02,-1.375 0,-0.546 0.02,-1.345 0.03,-1.629 0.638,0 1.445,0 2.622,0.126 -0.02,-0.115 -0.041,-0.21 -0.041,-0.357 0,-0.146 0.021,-0.231 0.041,-0.336 -0.459,0.063 -0.928,0.063 -1.386,0.063 -0.768,0 -1.545,-0.031 -2.313,-0.063 0.06,0.787 0.11,1.47 0.11,3.76 0,1.051 -0.02,2.469 -0.08,3.498 0.698,-0.063 1.386,-0.063 2.083,-0.063 0.509,0 1.007,0.011 1.516,0.063 C 0.19,2.973 0.17,2.857 0.17,2.72 c 0,-0.146 0.02,-0.231 0.04,-0.335 -0.369,0.073 -0.718,0.136 -1.585,0.136 -0.359,0 -0.539,0 -0.967,-0.021 -0.02,-0.41 -0.02,-0.588 -0.02,-1.208 0,-0.683 0,-0.809 0.01,-1.365 C -1.565,-0.084 -0.777,-0.095 0,0" /></g><g
             transform="translate(295.8712,665.3774)"
             id="g290"><path
               inkscape:connector-curvature="0"
               id="path292"
               style="fill:#ffffff;fill-opacity:1;fill-rule:nonzero;stroke:none"
               d="m 0,0 c -0.698,0.557 -1.545,0.557 -2.343,0.557 -0.478,0 -0.558,-0.011 -0.877,-0.042 -0.04,-0.967 -0.05,-2.038 -0.05,-3.004 0,-1.922 0,-2.144 0.03,-3.182 0.339,-0.043 0.588,-0.064 1.067,-0.064 0.428,0 1.385,0 2.063,0.504 0.928,0.693 1.117,1.88 1.117,2.721 C 1.007,-1.722 0.838,-0.661 0,0 m -1.675,-6.218 c -0.099,0 -1.326,0.041 -1.585,0.041 -0.269,0 -0.498,-0.009 -1.067,-0.041 0.07,1.061 0.12,1.785 0.12,4.202 0,1.564 -0.02,1.963 -0.08,3.088 0.549,-0.021 1.087,-0.032 1.635,-0.032 1.785,0 2.742,0 3.669,-0.777 0.867,-0.725 1.097,-1.733 1.097,-2.647 0,-2.657 -1.795,-3.834 -3.789,-3.834" /></g><g
             transform="translate(303.9397,663.3298)"
             id="g294"><path
               inkscape:connector-curvature="0"
               id="path296"
               style="fill:#ffffff;fill-opacity:1;fill-rule:nonzero;stroke:none"
               d="m 0,0 c -0.02,-0.116 -0.04,-0.211 -0.04,-0.358 0,-0.115 0.03,-0.21 0.04,-0.325 -0.518,0.073 -1.116,0.105 -1.545,0.105 -0.269,0 -0.558,-0.01 -0.807,-0.021 -0.01,-0.452 -0.02,-0.924 -0.02,-1.376 0,-0.546 0.02,-1.344 0.03,-1.628 0.638,0 1.445,0 2.622,0.126 -0.02,-0.115 -0.04,-0.21 -0.04,-0.357 0,-0.147 0.02,-0.231 0.04,-0.337 -0.459,0.064 -0.928,0.064 -1.386,0.064 -0.768,0 -1.545,-0.031 -2.313,-0.064 0.06,0.788 0.11,1.471 0.11,3.761 0,1.05 -0.02,2.469 -0.08,3.498 0.698,-0.064 1.386,-0.064 2.083,-0.064 0.509,0 1.007,0.011 1.516,0.064 C 0.19,2.973 0.17,2.857 0.17,2.72 c 0,-0.147 0.02,-0.231 0.04,-0.336 -0.369,0.074 -0.718,0.137 -1.585,0.137 -0.359,0 -0.539,0 -0.967,-0.021 -0.02,-0.41 -0.02,-0.588 -0.02,-1.209 0,-0.682 0,-0.808 0.01,-1.365 C -1.565,-0.085 -0.777,-0.095 0,0" /></g><g
             transform="translate(266.3764,646.2383)"
             id="g298"><path
               inkscape:connector-curvature="0"
               id="path300"
               style="fill:#ffffff;fill-opacity:1;fill-rule:nonzero;stroke:none"
               d="m 0,0 c 0.508,0 1.346,0.042 1.804,0.126 -0.02,-0.095 -0.04,-0.199 -0.04,-0.346 0,-0.168 0.02,-0.273 0.04,-0.358 -0.648,0.022 -1.067,0.063 -2.153,0.063 -0.877,0 -1.127,-0.031 -1.665,-0.063 0.08,1.344 0.09,2.458 0.09,3.834 0,1.428 -0.06,2.983 -0.08,3.435 0.16,-0.032 0.289,-0.063 0.538,-0.063 0.26,0 0.449,0.031 0.628,0.063 C -0.927,4.003 -0.927,3.288 -0.927,0.021 -0.449,0 -0.249,0 0,0" /></g><g
             transform="translate(269.948,652.4885)"
             id="g302"><path
               inkscape:connector-curvature="0"
               id="path304"
               style="fill:#ffffff;fill-opacity:1;fill-rule:nonzero;stroke:none"
               d="m 0,0 c 0.049,0.178 0.139,0.525 0.498,0.525 0.299,0 0.429,-0.252 0.429,-0.441 0,-0.147 -0.06,-0.283 -0.15,-0.441 L -0.429,-2.48 c -0.09,0.064 -0.15,0.075 -0.219,0.085 L 0,0 Z" /></g><g
             transform="translate(273.6778,652.9294)"
             id="g306"><path
               inkscape:connector-curvature="0"
               id="path308"
               style="fill:#ffffff;fill-opacity:1;fill-rule:nonzero;stroke:none"
               d="m 0,0 c 0.159,-0.042 0.279,-0.063 0.548,-0.063 0.279,0 0.409,0.021 0.578,0.063 -0.059,-1.25 -0.079,-2.5 -0.079,-3.75 0,-1.891 0.039,-2.731 0.069,-3.519 -0.189,0.032 -0.398,0.063 -0.618,0.063 -0.219,0 -0.369,-0.031 -0.528,-0.063 0.07,1.145 0.1,1.681 0.1,3.739 0,1.514 0,1.608 -0.07,3.53" /></g><g
             transform="translate(278.5744,650.4299)"
             id="g310"><path
               inkscape:connector-curvature="0"
               id="path312"
               style="fill:#ffffff;fill-opacity:1;fill-rule:nonzero;stroke:none"
               d="m 0,0 c 0.03,-2.543 0.07,-3.141 0.16,-4.77 -0.12,0.032 -0.239,0.064 -0.419,0.064 -0.179,0 -0.269,-0.032 -0.389,-0.064 0.05,0.526 0.13,2.332 0.13,3.425 0,0.42 -0.03,2.248 -0.03,2.626 l 0,1.26 c 0.06,-0.01 0.11,-0.02 0.159,-0.02 0.06,0 0.12,0.01 0.21,0.02 L 0.15,2.132 C 0.419,1.806 0.658,1.523 1.266,0.85 3.26,-1.366 3.479,-1.618 4.745,-2.973 l 0,0.389 c 0,2.678 0,3.602 -0.129,5.125 0.11,-0.031 0.229,-0.063 0.389,-0.063 0.159,0 0.299,0.032 0.428,0.063 -0.169,-1.512 -0.169,-3.035 -0.169,-4.548 0,-0.819 0,-2.08 0.04,-2.826 -0.08,0.011 -0.13,0.022 -0.19,0.022 -0.05,0 -0.089,-0.011 -0.159,-0.022 -0.309,0.4 -1.805,2.154 -2.502,2.836 -0.17,0.169 -0.339,0.347 -0.509,0.526 L 0,0.661 0,0 Z" /></g><g
             transform="translate(288.3278,652.3411)"
             id="g314"><path
               inkscape:connector-curvature="0"
               id="path316"
               style="fill:#ffffff;fill-opacity:1;fill-rule:nonzero;stroke:none"
               d="m 0,0 c -1.047,-0.01 -1.775,-0.052 -2.213,-0.147 0.02,0.116 0.04,0.21 0.04,0.368 0,0.168 -0.02,0.262 -0.04,0.367 0.618,-0.062 1.894,-0.062 2.681,-0.062 0.977,0 2.034,0 2.672,0.062 C 3.12,0.494 3.1,0.378 3.1,0.221 3.1,0.063 3.12,-0.031 3.14,-0.147 2.831,-0.083 2.213,-0.01 1.017,0 c -0.01,-0.724 -0.02,-1.46 -0.02,-2.175 0,-1.27 -0.04,-2.92 0.07,-4.506 -0.339,0.053 -0.559,0.064 -0.638,0.064 -0.23,0 -0.429,-0.042 -0.519,-0.064 0.08,1.156 0.11,2.689 0.11,4.107 C 0.02,-1.618 0.01,-0.715 0,0" /></g><g
             transform="translate(294.6511,653.3499)"
             id="g318"><path
               inkscape:connector-curvature="0"
               id="path320"
               style="fill:#ffffff;fill-opacity:1;fill-rule:nonzero;stroke:none"
               d="m 0,0 1.336,1.397 c 0.319,0.336 0.359,0.378 0.519,0.378 0.179,0 0.338,-0.168 0.338,-0.368 0,-0.126 -0.06,-0.231 -0.189,-0.315 L 0.349,0 0,0 Z m 2.363,-3.519 c -0.02,-0.116 -0.04,-0.211 -0.04,-0.357 0,-0.116 0.03,-0.211 0.04,-0.326 -0.518,0.073 -1.117,0.105 -1.545,0.105 -0.27,0 -0.559,-0.01 -0.808,-0.021 C 0,-4.57 -0.01,-5.043 -0.01,-5.494 c 0,-0.546 0.02,-1.345 0.03,-1.628 0.638,0 1.445,0 2.622,0.126 -0.02,-0.116 -0.04,-0.21 -0.04,-0.357 0,-0.147 0.02,-0.231 0.04,-0.337 -0.459,0.064 -0.927,0.064 -1.386,0.064 -0.767,0 -1.545,-0.032 -2.313,-0.064 0.06,0.789 0.11,1.471 0.11,3.761 0,1.051 -0.02,2.469 -0.08,3.498 0.698,-0.063 1.386,-0.063 2.084,-0.063 0.508,0 1.006,0.011 1.515,0.063 -0.019,-0.115 -0.039,-0.231 -0.039,-0.368 0,-0.146 0.02,-0.231 0.039,-0.335 -0.369,0.073 -0.717,0.135 -1.585,0.135 -0.359,0 -0.538,0 -0.967,-0.02 C 0,-1.429 0,-1.607 0,-2.227 0,-2.911 0,-3.036 0.01,-3.592 0.798,-3.603 1.585,-3.614 2.363,-3.519" /></g><g
             transform="translate(301.5423,652.4673)"
             id="g322"><path
               inkscape:connector-curvature="0"
               id="path324"
               style="fill:#ffffff;fill-opacity:1;fill-rule:nonzero;stroke:none"
               d="m 0,0 c -0.289,0 -0.498,-0.031 -0.628,-0.053 -0.02,-0.473 -0.02,-0.955 -0.02,-1.428 0,-0.483 0.01,-1.219 0.01,-1.439 0.19,-0.021 0.289,-0.021 0.528,-0.011 0.449,0.021 1.824,0.084 1.824,1.544 C 1.714,-0.158 0.728,0 0,0 m 3.37,-6.807 c -0.21,0.032 -0.369,0.063 -0.588,0.063 -0.21,0 -0.44,-0.031 -0.718,-0.063 -0.948,1.576 -1.676,2.563 -2.443,3.519 l -0.259,0 c 0,-0.746 -0.01,-1.838 0.07,-3.519 -0.17,0.042 -0.399,0.063 -0.578,0.063 -0.27,0 -0.38,-0.031 -0.529,-0.063 0.05,1.24 0.07,2.49 0.07,4.023 0,0.977 -0.03,2.069 -0.06,3.246 0.379,-0.042 0.658,-0.042 0.867,-0.042 0.18,0 0.998,0.01 1.157,0.01 1.186,0 1.555,-0.157 1.884,-0.441 0.379,-0.325 0.509,-0.755 0.509,-1.261 0,-1.501 -1.346,-1.764 -1.954,-1.879 0.368,-0.599 2.452,-3.351 2.572,-3.53 l 0,-0.126 z" /></g><g
             transform="translate(307.3673,652.9294)"
             id="g326"><path
               inkscape:connector-curvature="0"
               id="path328"
               style="fill:#ffffff;fill-opacity:1;fill-rule:nonzero;stroke:none"
               d="m 0,0 c 0.16,-0.042 0.279,-0.063 0.548,-0.063 0.28,0 0.409,0.021 0.578,0.063 -0.059,-1.25 -0.079,-2.5 -0.079,-3.75 0,-1.891 0.04,-2.731 0.07,-3.519 -0.19,0.032 -0.399,0.063 -0.619,0.063 -0.219,0 -0.368,-0.031 -0.528,-0.063 0.07,1.145 0.1,1.681 0.1,3.739 0,1.514 0,1.608 -0.07,3.53" /></g><g
             transform="translate(315.0052,649.8306)"
             id="g330"><path
               inkscape:connector-curvature="0"
               id="path332"
               style="fill:#ffffff;fill-opacity:1;fill-rule:nonzero;stroke:none"
               d="m 0,0 c -0.02,-0.115 -0.04,-0.21 -0.04,-0.357 0,-0.115 0.03,-0.21 0.04,-0.325 -0.518,0.072 -1.116,0.104 -1.545,0.104 -0.269,0 -0.558,-0.01 -0.807,-0.021 -0.01,-0.451 -0.02,-0.924 -0.02,-1.376 0,-0.546 0.02,-1.344 0.03,-1.628 0.638,0 1.445,0 2.622,0.127 -0.02,-0.116 -0.04,-0.21 -0.04,-0.358 0,-0.147 0.02,-0.231 0.04,-0.336 -0.459,0.063 -0.928,0.063 -1.386,0.063 -0.768,0 -1.545,-0.031 -2.313,-0.063 0.06,0.788 0.11,1.47 0.11,3.761 0,1.05 -0.02,2.468 -0.08,3.498 0.698,-0.064 1.386,-0.064 2.083,-0.064 0.509,0 1.007,0.011 1.516,0.064 C 0.19,2.973 0.17,2.857 0.17,2.721 c 0,-0.147 0.02,-0.232 0.04,-0.336 -0.369,0.074 -0.718,0.136 -1.585,0.136 -0.359,0 -0.539,0 -0.967,-0.021 -0.02,-0.409 -0.02,-0.588 -0.02,-1.208 0,-0.683 0,-0.809 0.01,-1.365 C -1.565,-0.084 -0.777,-0.095 0,0" /></g><g
             transform="translate(317.8596,652.9294)"
             id="g334"><path
               inkscape:connector-curvature="0"
               id="path336"
               style="fill:#ffffff;fill-opacity:1;fill-rule:nonzero;stroke:none"
               d="m 0,0 c 0.209,-0.032 0.409,-0.063 0.588,-0.063 0.219,0 0.409,0.031 0.578,0.063 -0.09,-1.376 -0.09,-3.372 -0.09,-3.592 0,-1.324 0.04,-2.06 0.439,-2.574 0.319,-0.42 0.967,-0.682 1.595,-0.682 0.279,0 1.635,0.063 1.964,1.533 0.159,0.715 0.169,1.902 0.169,2.164 0,0.399 -0.04,2.468 -0.139,3.151 0.129,-0.032 0.239,-0.063 0.469,-0.063 0.219,0 0.318,0.031 0.438,0.063 -0.13,-0.956 -0.17,-2.154 -0.17,-3.708 0,-1.019 -0.049,-2.153 -0.717,-2.878 -0.419,-0.462 -1.057,-0.83 -2.193,-0.83 -0.768,0 -1.815,0.189 -2.433,1.061 -0.369,0.525 -0.419,1.103 -0.419,2.006 0,2.826 0,3.036 -0.079,4.349" /></g><g
             transform="translate(328.49,652.4673)"
             id="g338"><path
               inkscape:connector-curvature="0"
               id="path340"
               style="fill:#ffffff;fill-opacity:1;fill-rule:nonzero;stroke:none"
               d="m 0,0 c -0.289,0 -0.498,-0.031 -0.628,-0.053 -0.02,-0.473 -0.02,-0.955 -0.02,-1.428 0,-0.483 0.01,-1.219 0.01,-1.439 0.19,-0.021 0.29,-0.021 0.528,-0.011 0.449,0.021 1.825,0.084 1.825,1.544 C 1.715,-0.158 0.728,0 0,0 m 3.37,-6.807 c -0.21,0.032 -0.369,0.063 -0.588,0.063 -0.209,0 -0.439,-0.031 -0.718,-0.063 -0.947,1.576 -1.675,2.563 -2.442,3.519 l -0.26,0 c 0,-0.746 -0.01,-1.838 0.07,-3.519 -0.169,0.042 -0.399,0.063 -0.578,0.063 -0.269,0 -0.38,-0.031 -0.528,-0.063 0.05,1.24 0.069,2.49 0.069,4.023 0,0.977 -0.029,2.069 -0.059,3.246 0.378,-0.042 0.657,-0.042 0.867,-0.042 0.179,0 0.997,0.01 1.156,0.01 1.186,0 1.555,-0.157 1.884,-0.441 0.379,-0.325 0.509,-0.755 0.509,-1.261 0,-1.501 -1.346,-1.764 -1.954,-1.879 0.369,-0.599 2.452,-3.351 2.572,-3.53 l 0,-0.126 z" /></g></g></g></g></g></svg>